<svg width="750" height="990" viewBox="0 0 750 990" version="1.1" xmlns="http://www.w3.org/2000/svg" xmlns:xlink="http://www.w3.org/1999/xlink">
<g id="Canvas" fill="none">
<g id="HERO Copy 4">
<g id="hero image frame">
<path fill-rule="evenodd" clip-rule="evenodd" d="M 0 0L 375 0L 375 500L 0 500L 0 0Z" transform="scale(2)" fill="#8D0305"/>
</g>
<mask id="mask0" mask-type="alpha" maskUnits="userSpaceOnUse" x="0" y="0" width="750" height="1000">
<g id="hero image frame_2">
<path fill-rule="evenodd" clip-rule="evenodd" d="M 0 0L 375 0L 375 500L 0 500L 0 0Z" transform="scale(2)" fill="white"/>
</g>
</mask>
<g mask="url(#mask0)">
<g id="Group 4" opacity="0.395833">
<g id="Target Copy 4">
<g id="_Compound_Path_">
<path fill-rule="evenodd" clip-rule="evenodd" d="M 0 19C 0 29.4934 8.50659 38 19 38C 29.4934 38 38 29.4934 38 19C 38 13.9609 35.9982 9.12817 32.435 5.56494C 28.8718 2.00183 24.0391 0 19 0C 8.50659 0 0 8.50659 0 19ZM 6.33333 19C 6.33333 12.0044 12.0044 6.33337 19 6.33337C 25.9956 6.33337 31.6667 12.0044 31.6667 19C 31.6667 25.9956 25.9956 31.6667 19 31.6667C 12.0044 31.6667 6.33333 25.9956 6.33333 19Z" transform="translate(10 30) scale(2)" fill="#CB2026" fill-opacity="0.4"/>
</g>
<g id="_Path_">
<path d="M 6.33333 12.6667C 9.83114 12.6667 12.6667 9.83114 12.6667 6.33333C 12.6667 2.83553 9.83114 0 6.33333 0C 2.83553 0 0 2.83553 0 6.33333C 0 9.83114 2.83553 12.6667 6.33333 12.6667Z" transform="translate(35.7996 55.3333) scale(2)" fill="#CB2026" fill-opacity="0.4"/>
</g>
</g>
<g id="Target Copy 30">
<g id="_Compound_Path__2">
<path fill-rule="evenodd" clip-rule="evenodd" d="M 0 19C 0 29.4934 8.50659 38 19 38C 29.4934 38 38 29.4934 38 19C 38 13.9609 35.9982 9.12817 32.435 5.56494C 28.8718 2.00177 24.0391 0 19 0C 8.50659 0 0 8.50659 0 19ZM 6.33333 19C 6.33333 12.0044 12.0044 6.33331 19 6.33331C 25.9956 6.33331 31.6667 12.0044 31.6667 19C 31.6667 25.9956 25.9956 31.6666 19 31.6666C 12.0044 31.6666 6.33333 25.9956 6.33333 19Z" transform="translate(10 276) scale(2)" fill="#CB2026" fill-opacity="0.4"/>
</g>
<g id="_Path__2">
<path d="M 6.33333 12.6667C 9.83114 12.6667 12.6667 9.83114 12.6667 6.33333C 12.6667 2.83553 9.83114 0 6.33333 0C 2.83553 0 0 2.83553 0 6.33333C 0 9.83114 2.83553 12.6667 6.33333 12.6667Z" transform="translate(35.7996 301.333) scale(2)" fill="#CB2026" fill-opacity="0.4"/>
</g>
</g>
<g id="Target Copy 57">
<g id="_Compound_Path__3">
<path fill-rule="evenodd" clip-rule="evenodd" d="M 0 19C 0 29.4934 8.50659 38 19 38C 29.4934 38 38 29.4934 38 19C 38 13.9609 35.9982 9.12817 32.435 5.56494C 28.8718 2.00177 24.0391 0 19 0C 8.50659 0 0 8.50659 0 19ZM 6.33333 19C 6.33333 12.0044 12.0044 6.33331 19 6.33331C 25.9956 6.33331 31.6667 12.0044 31.6667 19C 31.6667 25.9956 25.9956 31.6666 19 31.6666C 12.0044 31.6666 6.33333 25.9956 6.33333 19Z" transform="translate(10 522) scale(2)" fill="#CB2026" fill-opacity="0.4"/>
</g>
<g id="_Path__3">
<path d="M 6.33333 12.6667C 9.83114 12.6667 12.6667 9.83114 12.6667 6.33333C 12.6667 2.83553 9.83114 0 6.33333 0C 2.83553 0 0 2.83553 0 6.33333C 0 9.83114 2.83553 12.6667 6.33333 12.6667Z" transform="translate(35.7996 547.333) scale(2)" fill="#CB2026" fill-opacity="0.4"/>
</g>
</g>
<g id="Target Copy 84">
<g id="_Compound_Path__4">
<path fill-rule="evenodd" clip-rule="evenodd" d="M 0 19C 0 29.4934 8.50659 38 19 38C 29.4934 38 38 29.4934 38 19C 38 13.9609 35.9982 9.12817 32.435 5.56494C 28.8718 2.00177 24.0391 0 19 0C 8.50659 0 0 8.50659 0 19ZM 6.33333 19C 6.33333 12.0044 12.0044 6.33331 19 6.33331C 25.9956 6.33331 31.6667 12.0044 31.6667 19C 31.6667 25.9956 25.9956 31.6666 19 31.6666C 12.0044 31.6666 6.33333 25.9956 6.33333 19Z" transform="translate(10 768) scale(2)" fill="#CB2026" fill-opacity="0.4"/>
</g>
<g id="_Path__4">
<path d="M 6.33333 12.6667C 9.83114 12.6667 12.6667 9.83114 12.6667 6.33333C 12.6667 2.83553 9.83114 0 6.33333 0C 2.83553 0 0 2.83553 0 6.33333C 0 9.83114 2.83553 12.6667 6.33333 12.6667Z" transform="translate(35.7996 793.333) scale(2)" fill="#CB2026" fill-opacity="0.4"/>
</g>
</g>
<g id="Target Copy 15">
<g id="_Compound_Path__5">
<path fill-rule="evenodd" clip-rule="evenodd" d="M 0 19C 0 29.4934 8.50659 38 19 38C 29.4934 38 38 29.4934 38 19C 38 13.9609 35.9982 9.12817 32.435 5.56494C 28.8718 2.00183 24.0391 0 19 0C 8.50659 0 0 8.50659 0 19ZM 6.33333 19C 6.33333 12.0044 12.0044 6.33331 19 6.33331C 25.9956 6.33331 31.6667 12.0044 31.6667 19C 31.6667 25.9956 25.9956 31.6666 19 31.6666C 12.0044 31.6666 6.33333 25.9956 6.33333 19Z" transform="translate(-66 154) scale(2)" fill="#CB2026" fill-opacity="0.4"/>
</g>
</g>
<g id="Target Copy 31">
<g id="_Compound_Path__6">
<path fill-rule="evenodd" clip-rule="evenodd" d="M 0 19C 0 29.4934 8.50659 38 19 38C 29.4934 38 38 29.4934 38 19C 38 13.9609 35.9982 9.12817 32.435 5.56494C 28.8718 2.00177 24.0391 0 19 0C 8.50659 0 0 8.50659 0 19ZM 6.33333 19C 6.33333 12.0044 12.0044 6.33331 19 6.33331C 25.9956 6.33331 31.6667 12.0044 31.6667 19C 31.6667 25.9956 25.9956 31.6666 19 31.6666C 12.0044 31.6666 6.33333 25.9956 6.33333 19Z" transform="translate(-66 400) scale(2)" fill="#CB2026" fill-opacity="0.4"/>
</g>
</g>
<g id="Target Copy 58">
<g id="_Compound_Path__7">
<path fill-rule="evenodd" clip-rule="evenodd" d="M 0 19C 0 29.4934 8.50659 38 19 38C 29.4934 38 38 29.4934 38 19C 38 13.9609 35.9982 9.12817 32.435 5.56494C 28.8718 2.00177 24.0391 0 19 0C 8.50659 0 0 8.50659 0 19ZM 6.33333 19C 6.33333 12.0044 12.0044 6.33331 19 6.33331C 25.9956 6.33331 31.6667 12.0044 31.6667 19C 31.6667 25.9956 25.9956 31.6666 19 31.6666C 12.0044 31.6666 6.33333 25.9956 6.33333 19Z" transform="translate(-66 646) scale(2)" fill="#CB2026" fill-opacity="0.4"/>
</g>
</g>
<g id="Target Copy 85">
<g id="_Compound_Path__8">
<path fill-rule="evenodd" clip-rule="evenodd" d="M 0 19C 0 29.4934 8.50659 38 19 38C 29.4934 38 38 29.4934 38 19C 38 13.9609 35.9982 9.12817 32.435 5.56494C 28.8718 2.00177 24.0391 0 19 0C 8.50659 0 0 8.50659 0 19ZM 6.33333 19C 6.33333 12.0044 12.0044 6.33331 19 6.33331C 25.9956 6.33331 31.6667 12.0044 31.6667 19C 31.6667 25.9956 25.9956 31.6666 19 31.6666C 12.0044 31.6666 6.33333 25.9956 6.33333 19Z" transform="translate(-66 894) scale(2)" fill="#CB2026" fill-opacity="0.4"/>
</g>
</g>
<g id="Target Copy 9">
<g id="_Compound_Path__9">
<path fill-rule="evenodd" clip-rule="evenodd" d="M 0 19C 0 29.4934 8.50659 38 19 38C 29.4934 38 38 29.4934 38 19C 38 13.9609 35.9982 9.12817 32.435 5.56494C 28.8718 2.00183 24.0391 0 19 0C 8.50659 0 0 8.50659 0 19ZM 6.33333 19C 6.33333 12.0044 12.0044 6.33337 19 6.33337C 25.9956 6.33337 31.6667 12.0044 31.6667 19C 31.6667 25.9956 25.9956 31.6667 19 31.6667C 12.0044 31.6667 6.33333 25.9956 6.33333 19Z" transform="translate(634 30) scale(2)" fill="#CB2026" fill-opacity="0.4"/>
</g>
<g id="_Path__5">
<path d="M 6.33333 12.6667C 9.83114 12.6667 12.6667 9.83114 12.6667 6.33333C 12.6667 2.83553 9.83114 0 6.33333 0C 2.83553 0 0 2.83553 0 6.33333C 0 9.83114 2.83553 12.6667 6.33333 12.6667Z" transform="translate(659.8 55.3333) scale(2)" fill="#CB2026" fill-opacity="0.4"/>
</g>
</g>
<g id="Target Copy 36">
<g id="_Compound_Path__10">
<path fill-rule="evenodd" clip-rule="evenodd" d="M 0 19C 0 29.4934 8.50659 38 19 38C 29.4934 38 38 29.4934 38 19C 38 13.9609 35.9982 9.12817 32.435 5.56494C 28.8718 2.00177 24.0391 0 19 0C 8.50659 0 0 8.50659 0 19ZM 6.33333 19C 6.33333 12.0044 12.0044 6.33331 19 6.33331C 25.9956 6.33331 31.6667 12.0044 31.6667 19C 31.6667 25.9956 25.9956 31.6666 19 31.6666C 12.0044 31.6666 6.33333 25.9956 6.33333 19Z" transform="translate(634 276) scale(2)" fill="#CB2026" fill-opacity="0.4"/>
</g>
<g id="_Path__6">
<path d="M 6.33333 12.6667C 9.83114 12.6667 12.6667 9.83114 12.6667 6.33333C 12.6667 2.83553 9.83114 0 6.33333 0C 2.83553 0 0 2.83553 0 6.33333C 0 9.83114 2.83553 12.6667 6.33333 12.6667Z" transform="translate(659.8 301.333) scale(2)" fill="#CB2026" fill-opacity="0.4"/>
</g>
</g>
<g id="Target Copy 63">
<g id="_Compound_Path__11">
<path fill-rule="evenodd" clip-rule="evenodd" d="M 0 19C 0 29.4934 8.50659 38 19 38C 29.4934 38 38 29.4934 38 19C 38 13.9609 35.9982 9.12817 32.435 5.56494C 28.8718 2.00177 24.0391 0 19 0C 8.50659 0 0 8.50659 0 19ZM 6.33333 19C 6.33333 12.0044 12.0044 6.33331 19 6.33331C 25.9956 6.33331 31.6667 12.0044 31.6667 19C 31.6667 25.9956 25.9956 31.6666 19 31.6666C 12.0044 31.6666 6.33333 25.9956 6.33333 19Z" transform="translate(634 522) scale(2)" fill="#CB2026" fill-opacity="0.4"/>
</g>
<g id="_Path__7">
<path d="M 6.33333 12.6667C 9.83114 12.6667 12.6667 9.83114 12.6667 6.33333C 12.6667 2.83553 9.83114 0 6.33333 0C 2.83553 0 0 2.83553 0 6.33333C 0 9.83114 2.83553 12.6667 6.33333 12.6667Z" transform="translate(659.8 547.333) scale(2)" fill="#CB2026" fill-opacity="0.4"/>
</g>
</g>
<g id="Target Copy 90">
<g id="_Compound_Path__12">
<path fill-rule="evenodd" clip-rule="evenodd" d="M 0 19C 0 29.4934 8.50659 38 19 38C 29.4934 38 38 29.4934 38 19C 38 13.9609 35.9982 9.12817 32.435 5.56494C 28.8718 2.00177 24.0391 0 19 0C 8.50659 0 0 8.50659 0 19ZM 6.33333 19C 6.33333 12.0044 12.0044 6.33331 19 6.33331C 25.9956 6.33331 31.6667 12.0044 31.6667 19C 31.6667 25.9956 25.9956 31.6666 19 31.6666C 12.0044 31.6666 6.33333 25.9956 6.33333 19Z" transform="translate(634 768) scale(2)" fill="#CB2026" fill-opacity="0.4"/>
</g>
<g id="_Path__8">
<path d="M 6.33333 12.6667C 9.83114 12.6667 12.6667 9.83114 12.6667 6.33333C 12.6667 2.83553 9.83114 0 6.33333 0C 2.83553 0 0 2.83553 0 6.33333C 0 9.83114 2.83553 12.6667 6.33333 12.6667Z" transform="translate(659.8 793.333) scale(2)" fill="#CB2026" fill-opacity="0.4"/>
</g>
</g>
<g id="Target Copy 18">
<g id="_Compound_Path__13">
<path fill-rule="evenodd" clip-rule="evenodd" d="M 0 19C 0 29.4934 8.50659 38 19 38C 29.4934 38 38 29.4934 38 19C 38 13.9609 35.9982 9.12817 32.435 5.56494C 28.8718 2.00183 24.0391 0 19 0C 8.50659 0 0 8.50659 0 19ZM 6.33334 19C 6.33334 12.0044 12.0044 6.33331 19 6.33331C 25.9956 6.33331 31.6667 12.0044 31.6667 19C 31.6667 25.9956 25.9956 31.6666 19 31.6666C 12.0044 31.6666 6.33334 25.9956 6.33334 19Z" transform="translate(560 154) scale(2)" fill="#CB2026" fill-opacity="0.4"/>
</g>
<g id="_Path__9">
<path d="M 6.33333 12.6667C 9.83114 12.6667 12.6667 9.83114 12.6667 6.33333C 12.6667 2.83553 9.83114 0 6.33333 0C 2.83553 0 0 2.83553 0 6.33333C 0 9.83114 2.83553 12.6667 6.33333 12.6667Z" transform="translate(585.8 179.333) scale(2)" fill="#CB2026" fill-opacity="0.4"/>
</g>
</g>
<g id="Target Copy 37">
<g id="_Compound_Path__14">
<path fill-rule="evenodd" clip-rule="evenodd" d="M 0 19C 0 29.4934 8.50659 38 19 38C 29.4934 38 38 29.4934 38 19C 38 13.9609 35.9982 9.12817 32.435 5.56494C 28.8718 2.00177 24.0391 0 19 0C 8.50659 0 0 8.50659 0 19ZM 6.33334 19C 6.33334 12.0044 12.0044 6.33331 19 6.33331C 25.9956 6.33331 31.6667 12.0044 31.6667 19C 31.6667 25.9956 25.9956 31.6666 19 31.6666C 12.0044 31.6666 6.33334 25.9956 6.33334 19Z" transform="translate(560 400) scale(2)" fill="#CB2026" fill-opacity="0.4"/>
</g>
<g id="_Path__10">
<path d="M 6.33333 12.6667C 9.83114 12.6667 12.6667 9.83114 12.6667 6.33333C 12.6667 2.83553 9.83114 0 6.33333 0C 2.83553 0 0 2.83553 0 6.33333C 0 9.83114 2.83553 12.6667 6.33333 12.6667Z" transform="translate(585.8 425.333) scale(2)" fill="#CB2026" fill-opacity="0.4"/>
</g>
</g>
<g id="Target Copy 64">
<g id="_Compound_Path__15">
<path fill-rule="evenodd" clip-rule="evenodd" d="M 0 19C 0 29.4934 8.50659 38 19 38C 29.4934 38 38 29.4934 38 19C 38 13.9609 35.9982 9.12817 32.435 5.56494C 28.8718 2.00177 24.0391 0 19 0C 8.50659 0 0 8.50659 0 19ZM 6.33334 19C 6.33334 12.0044 12.0044 6.33331 19 6.33331C 25.9956 6.33331 31.6667 12.0044 31.6667 19C 31.6667 25.9956 25.9956 31.6666 19 31.6666C 12.0044 31.6666 6.33334 25.9956 6.33334 19Z" transform="translate(560 646) scale(2)" fill="#CB2026" fill-opacity="0.4"/>
</g>
<g id="_Path__11">
<path d="M 6.33333 12.6667C 9.83114 12.6667 12.6667 9.83114 12.6667 6.33333C 12.6667 2.83553 9.83114 0 6.33333 0C 2.83553 0 0 2.83553 0 6.33333C 0 9.83114 2.83553 12.6667 6.33333 12.6667Z" transform="translate(585.8 671.333) scale(2)" fill="#CB2026" fill-opacity="0.4"/>
</g>
</g>
<g id="Target Copy 91">
<g id="_Compound_Path__16">
<path fill-rule="evenodd" clip-rule="evenodd" d="M 0 19C 0 29.4934 8.50659 38 19 38C 29.4934 38 38 29.4934 38 19C 38 13.9609 35.9982 9.12817 32.435 5.56494C 28.8718 2.00177 24.0391 0 19 0C 8.50659 0 0 8.50659 0 19ZM 6.33334 19C 6.33334 12.0044 12.0044 6.33331 19 6.33331C 25.9956 6.33331 31.6667 12.0044 31.6667 19C 31.6667 25.9956 25.9956 31.6666 19 31.6666C 12.0044 31.6666 6.33334 25.9956 6.33334 19Z" transform="translate(560 894) scale(2)" fill="#CB2026" fill-opacity="0.4"/>
</g>
<g id="_Path__12">
<path d="M 6.33333 12.6667C 9.83114 12.6667 12.6667 9.83114 12.6667 6.33333C 12.6667 2.83553 9.83114 0 6.33333 0C 2.83553 0 0 2.83553 0 6.33333C 0 9.83114 2.83553 12.6667 6.33333 12.6667Z" transform="translate(585.8 919.333) scale(2)" fill="#CB2026" fill-opacity="0.4"/>
</g>
</g>
<g id="Target Copy 5">
<g id="_Compound_Path__17">
<path fill-rule="evenodd" clip-rule="evenodd" d="M 19 38C 29.4934 38 38 29.4934 38 19C 38 13.9609 35.9982 9.12817 32.435 5.56494C 28.8718 2.00183 24.0391 0 19 0C 8.50659 0 0 8.50659 0 19C 0 29.4934 8.50659 38 19 38ZM 6.33333 19C 6.33333 12.0044 12.0044 6.33337 19 6.33337C 25.9956 6.33337 31.6667 12.0044 31.6667 19C 31.6667 25.9956 25.9956 31.6667 19 31.6667C 12.0044 31.6667 6.33333 25.9956 6.33333 19Z" transform="translate(324 30) scale(2)" fill="#CB2026" fill-opacity="0.4"/>
</g>
<g id="_Path__13">
<path d="M 6.33333 12.6667C 9.83114 12.6667 12.6667 9.83114 12.6667 6.33333C 12.6667 2.83553 9.83114 0 6.33333 0C 2.83553 0 0 2.83553 0 6.33333C 0 9.83114 2.83553 12.6667 6.33333 12.6667Z" transform="translate(349.8 55.3333) scale(2)" fill="#CB2026" fill-opacity="0.4"/>
</g>
</g>
<g id="Target Copy 38">
<g id="_Compound_Path__18">
<path fill-rule="evenodd" clip-rule="evenodd" d="M 19 38C 29.4934 38 38 29.4934 38 19C 38 13.9609 35.9982 9.12817 32.435 5.56494C 28.8718 2.00177 24.0391 0 19 0C 8.50659 0 0 8.50659 0 19C 0 29.4934 8.50659 38 19 38ZM 6.33333 19C 6.33333 12.0044 12.0044 6.33331 19 6.33331C 25.9956 6.33331 31.6667 12.0044 31.6667 19C 31.6667 25.9956 25.9956 31.6666 19 31.6666C 12.0044 31.6666 6.33333 25.9956 6.33333 19Z" transform="translate(324 276) scale(2)" fill="#CB2026" fill-opacity="0.4"/>
</g>
<g id="_Path__14">
<path d="M 6.33333 12.6667C 9.83114 12.6667 12.6667 9.83114 12.6667 6.33333C 12.6667 2.83553 9.83114 0 6.33333 0C 2.83553 0 0 2.83553 0 6.33333C 0 9.83114 2.83553 12.6667 6.33333 12.6667Z" transform="translate(349.8 301.333) scale(2)" fill="#CB2026" fill-opacity="0.4"/>
</g>
</g>
<g id="Target Copy 65">
<g id="_Compound_Path__19">
<path fill-rule="evenodd" clip-rule="evenodd" d="M 19 38C 29.4934 38 38 29.4934 38 19C 38 13.9609 35.9982 9.12817 32.435 5.56494C 28.8718 2.00177 24.0391 0 19 0C 8.50659 0 0 8.50659 0 19C 0 29.4934 8.50659 38 19 38ZM 6.33333 19C 6.33333 12.0044 12.0044 6.33331 19 6.33331C 25.9956 6.33331 31.6667 12.0044 31.6667 19C 31.6667 25.9956 25.9956 31.6666 19 31.6666C 12.0044 31.6666 6.33333 25.9956 6.33333 19Z" transform="translate(324 522) scale(2)" fill="#CB2026" fill-opacity="0.4"/>
</g>
<g id="_Path__15">
<path d="M 6.33333 12.6667C 9.83114 12.6667 12.6667 9.83114 12.6667 6.33333C 12.6667 2.83553 9.83114 0 6.33333 0C 2.83553 0 0 2.83553 0 6.33333C 0 9.83114 2.83553 12.6667 6.33333 12.6667Z" transform="translate(349.8 547.333) scale(2)" fill="#CB2026" fill-opacity="0.4"/>
</g>
</g>
<g id="Target Copy 92">
<g id="_Compound_Path__20">
<path fill-rule="evenodd" clip-rule="evenodd" d="M 19 38C 29.4934 38 38 29.4934 38 19C 38 13.9609 35.9982 9.12817 32.435 5.56494C 28.8718 2.00177 24.0391 0 19 0C 8.50659 0 0 8.50659 0 19C 0 29.4934 8.50659 38 19 38ZM 6.33333 19C 6.33333 12.0044 12.0044 6.33331 19 6.33331C 25.9956 6.33331 31.6667 12.0044 31.6667 19C 31.6667 25.9956 25.9956 31.6666 19 31.6666C 12.0044 31.6666 6.33333 25.9956 6.33333 19Z" transform="translate(324 768) scale(2)" fill="#CB2026" fill-opacity="0.4"/>
</g>
<g id="_Path__16">
<path d="M 6.33333 12.6667C 9.83114 12.6667 12.6667 9.83114 12.6667 6.33333C 12.6667 2.83553 9.83114 0 6.33333 0C 2.83553 0 0 2.83553 0 6.33333C 0 9.83114 2.83553 12.6667 6.33333 12.6667Z" transform="translate(349.8 793.333) scale(2)" fill="#CB2026" fill-opacity="0.4"/>
</g>
</g>
<g id="Target Copy 19">
<g id="_Compound_Path__21">
<path fill-rule="evenodd" clip-rule="evenodd" d="M 19 38C 29.4934 38 38 29.4934 38 19C 38 13.9609 35.9982 9.12817 32.435 5.56494C 28.8718 2.00183 24.0391 0 19 0C 8.50659 0 0 8.50659 0 19C 0 29.4934 8.50659 38 19 38ZM 6.33333 19C 6.33333 12.0044 12.0044 6.33331 19 6.33331C 25.9956 6.33331 31.6667 12.0044 31.6667 19C 31.6667 25.9956 25.9956 31.6666 19 31.6666C 12.0044 31.6666 6.33333 25.9956 6.33333 19Z" transform="translate(248 154) scale(2)" fill="#CB2026" fill-opacity="0.4"/>
</g>
<g id="_Path__17">
<path d="M 6.33333 12.6667C 9.83114 12.6667 12.6667 9.83114 12.6667 6.33333C 12.6667 2.83553 9.83114 0 6.33333 0C 2.83553 0 0 2.83553 0 6.33333C 0 9.83114 2.83553 12.6667 6.33333 12.6667Z" transform="translate(273.8 179.333) scale(2)" fill="#CB2026" fill-opacity="0.4"/>
</g>
</g>
<g id="Target Copy 39">
<g id="_Compound_Path__22">
<path fill-rule="evenodd" clip-rule="evenodd" d="M 19 38C 29.4934 38 38 29.4934 38 19C 38 13.9609 35.9982 9.12817 32.435 5.56494C 28.8718 2.00177 24.0391 0 19 0C 8.50659 0 0 8.50659 0 19C 0 29.4934 8.50659 38 19 38ZM 6.33333 19C 6.33333 12.0044 12.0044 6.33331 19 6.33331C 25.9956 6.33331 31.6667 12.0044 31.6667 19C 31.6667 25.9956 25.9956 31.6666 19 31.6666C 12.0044 31.6666 6.33333 25.9956 6.33333 19Z" transform="translate(248 400) scale(2)" fill="#CB2026" fill-opacity="0.4"/>
</g>
<g id="_Path__18">
<path d="M 6.33333 12.6667C 9.83114 12.6667 12.6667 9.83114 12.6667 6.33333C 12.6667 2.83553 9.83114 0 6.33333 0C 2.83553 0 0 2.83553 0 6.33333C 0 9.83114 2.83553 12.6667 6.33333 12.6667Z" transform="translate(273.8 425.333) scale(2)" fill="#CB2026" fill-opacity="0.4"/>
</g>
</g>
<g id="Target Copy 66">
<g id="_Compound_Path__23">
<path fill-rule="evenodd" clip-rule="evenodd" d="M 19 38C 29.4934 38 38 29.4934 38 19C 38 13.9609 35.9982 9.12817 32.435 5.56494C 28.8718 2.00177 24.0391 0 19 0C 8.50659 0 0 8.50659 0 19C 0 29.4934 8.50659 38 19 38ZM 6.33333 19C 6.33333 12.0044 12.0044 6.33331 19 6.33331C 25.9956 6.33331 31.6667 12.0044 31.6667 19C 31.6667 25.9956 25.9956 31.6666 19 31.6666C 12.0044 31.6666 6.33333 25.9956 6.33333 19Z" transform="translate(248 646) scale(2)" fill="#CB2026" fill-opacity="0.4"/>
</g>
<g id="_Path__19">
<path d="M 6.33333 12.6667C 9.83114 12.6667 12.6667 9.83114 12.6667 6.33333C 12.6667 2.83553 9.83114 0 6.33333 0C 2.83553 0 0 2.83553 0 6.33333C 0 9.83114 2.83553 12.6667 6.33333 12.6667Z" transform="translate(273.8 671.333) scale(2)" fill="#CB2026" fill-opacity="0.4"/>
</g>
</g>
<g id="Target Copy 93">
<g id="_Compound_Path__24">
<path fill-rule="evenodd" clip-rule="evenodd" d="M 19 38C 29.4934 38 38 29.4934 38 19C 38 13.9609 35.9982 9.12817 32.435 5.56494C 28.8718 2.00177 24.0391 0 19 0C 8.50659 0 0 8.50659 0 19C 0 29.4934 8.50659 38 19 38ZM 6.33333 19C 6.33333 12.0044 12.0044 6.33331 19 6.33331C 25.9956 6.33331 31.6667 12.0044 31.6667 19C 31.6667 25.9956 25.9956 31.6666 19 31.6666C 12.0044 31.6666 6.33333 25.9956 6.33333 19Z" transform="translate(248 894) scale(2)" fill="#CB2026" fill-opacity="0.4"/>
</g>
<g id="_Path__20">
<path d="M 6.33333 12.6667C 9.83114 12.6667 12.6667 9.83114 12.6667 6.33333C 12.6667 2.83553 9.83114 0 6.33333 0C 2.83553 0 0 2.83553 0 6.33333C 0 9.83114 2.83553 12.6667 6.33333 12.6667Z" transform="translate(273.8 919.333) scale(2)" fill="#CB2026" fill-opacity="0.4"/>
</g>
</g>
<g id="Target Copy 6">
<g id="_Compound_Path__25">
<path fill-rule="evenodd" clip-rule="evenodd" d="M 0 19C 0 29.4934 8.50659 38 19 38C 29.4934 38 38 29.4934 38 19C 38 13.9609 35.9982 9.12817 32.435 5.56494C 28.8718 2.00183 24.0391 0 19 0C 8.50659 0 0 8.50659 0 19ZM 6.33334 19C 6.33334 12.0044 12.0044 6.33337 19 6.33337C 25.9956 6.33337 31.6667 12.0044 31.6667 19C 31.6667 25.9956 25.9956 31.6667 19 31.6667C 12.0044 31.6667 6.33334 25.9956 6.33334 19Z" transform="translate(166 30) scale(2)" fill="#CB2026" fill-opacity="0.4"/>
</g>
<g id="_Path__21">
<path d="M 6.33333 12.6667C 9.83114 12.6667 12.6667 9.83114 12.6667 6.33333C 12.6667 2.83553 9.83114 0 6.33333 0C 2.83553 0 0 2.83553 0 6.33333C 0 9.83114 2.83553 12.6667 6.33333 12.6667Z" transform="translate(191.8 55.3333) scale(2)" fill="#CB2026" fill-opacity="0.4"/>
</g>
</g>
<g id="Target Copy 44">
<g id="_Compound_Path__26">
<path fill-rule="evenodd" clip-rule="evenodd" d="M 0 19C 0 29.4934 8.50659 38 19 38C 29.4934 38 38 29.4934 38 19C 38 13.9609 35.9982 9.12817 32.435 5.56494C 28.8718 2.00177 24.0391 0 19 0C 8.50659 0 0 8.50659 0 19ZM 6.33334 19C 6.33334 12.0044 12.0044 6.33331 19 6.33331C 25.9956 6.33331 31.6667 12.0044 31.6667 19C 31.6667 25.9956 25.9956 31.6666 19 31.6666C 12.0044 31.6666 6.33334 25.9956 6.33334 19Z" transform="translate(166 276) scale(2)" fill="#CB2026" fill-opacity="0.4"/>
</g>
<g id="_Path__22">
<path d="M 6.33333 12.6667C 9.83114 12.6667 12.6667 9.83114 12.6667 6.33333C 12.6667 2.83553 9.83114 0 6.33333 0C 2.83553 0 0 2.83553 0 6.33333C 0 9.83114 2.83553 12.6667 6.33333 12.6667Z" transform="translate(191.8 301.333) scale(2)" fill="#CB2026" fill-opacity="0.4"/>
</g>
</g>
<g id="Target Copy 71">
<g id="_Compound_Path__27">
<path fill-rule="evenodd" clip-rule="evenodd" d="M 0 19C 0 29.4934 8.50659 38 19 38C 29.4934 38 38 29.4934 38 19C 38 13.9609 35.9982 9.12817 32.435 5.56494C 28.8718 2.00177 24.0391 0 19 0C 8.50659 0 0 8.50659 0 19ZM 6.33334 19C 6.33334 12.0044 12.0044 6.33331 19 6.33331C 25.9956 6.33331 31.6667 12.0044 31.6667 19C 31.6667 25.9956 25.9956 31.6666 19 31.6666C 12.0044 31.6666 6.33334 25.9956 6.33334 19Z" transform="translate(166 522) scale(2)" fill="#CB2026" fill-opacity="0.4"/>
</g>
<g id="_Path__23">
<path d="M 6.33333 12.6667C 9.83114 12.6667 12.6667 9.83114 12.6667 6.33333C 12.6667 2.83553 9.83114 0 6.33333 0C 2.83553 0 0 2.83553 0 6.33333C 0 9.83114 2.83553 12.6667 6.33333 12.6667Z" transform="translate(191.8 547.333) scale(2)" fill="#CB2026" fill-opacity="0.4"/>
</g>
</g>
<g id="Target Copy 98">
<g id="_Compound_Path__28">
<path fill-rule="evenodd" clip-rule="evenodd" d="M 0 19C 0 29.4934 8.50659 38 19 38C 29.4934 38 38 29.4934 38 19C 38 13.9609 35.9982 9.12817 32.435 5.56494C 28.8718 2.00177 24.0391 0 19 0C 8.50659 0 0 8.50659 0 19ZM 6.33334 19C 6.33334 12.0044 12.0044 6.33331 19 6.33331C 25.9956 6.33331 31.6667 12.0044 31.6667 19C 31.6667 25.9956 25.9956 31.6666 19 31.6666C 12.0044 31.6666 6.33334 25.9956 6.33334 19Z" transform="translate(166 768) scale(2)" fill="#CB2026" fill-opacity="0.4"/>
</g>
<g id="_Path__24">
<path d="M 6.33333 12.6667C 9.83114 12.6667 12.6667 9.83114 12.6667 6.33333C 12.6667 2.83553 9.83114 0 6.33333 0C 2.83553 0 0 2.83553 0 6.33333C 0 9.83114 2.83553 12.6667 6.33333 12.6667Z" transform="translate(191.8 793.333) scale(2)" fill="#CB2026" fill-opacity="0.4"/>
</g>
</g>
<g id="Target Copy 22">
<g id="_Compound_Path__29">
<path fill-rule="evenodd" clip-rule="evenodd" d="M 0 19C 0 29.4934 8.50659 38 19 38C 29.4934 38 38 29.4934 38 19C 38 13.9609 35.9982 9.12817 32.435 5.56494C 28.8718 2.00183 24.0391 0 19 0C 8.50659 0 0 8.50659 0 19ZM 6.33334 19C 6.33334 12.0044 12.0044 6.33331 19 6.33331C 25.9956 6.33331 31.6667 12.0044 31.6667 19C 31.6667 25.9956 25.9956 31.6666 19 31.6666C 12.0044 31.6666 6.33334 25.9956 6.33334 19Z" transform="translate(90 154) scale(2)" fill="#CB2026" fill-opacity="0.4"/>
</g>
<g id="_Path__25">
<path d="M 6.33333 12.6667C 9.83114 12.6667 12.6667 9.83114 12.6667 6.33333C 12.6667 2.83553 9.83114 0 6.33333 0C 2.83553 0 0 2.83553 0 6.33333C 0 9.83114 2.83553 12.6667 6.33333 12.6667Z" transform="translate(115.8 179.333) scale(2)" fill="#CB2026" fill-opacity="0.4"/>
</g>
</g>
<g id="Target Copy 45">
<g id="_Compound_Path__30">
<path fill-rule="evenodd" clip-rule="evenodd" d="M 0 19C 0 29.4934 8.50659 38 19 38C 29.4934 38 38 29.4934 38 19C 38 13.9609 35.9982 9.12817 32.435 5.56494C 28.8718 2.00177 24.0391 0 19 0C 8.50659 0 0 8.50659 0 19ZM 6.33334 19C 6.33334 12.0044 12.0044 6.33331 19 6.33331C 25.9956 6.33331 31.6667 12.0044 31.6667 19C 31.6667 25.9956 25.9956 31.6666 19 31.6666C 12.0044 31.6666 6.33334 25.9956 6.33334 19Z" transform="translate(90 400) scale(2)" fill="#CB2026" fill-opacity="0.4"/>
</g>
<g id="_Path__26">
<path d="M 6.33333 12.6667C 9.83114 12.6667 12.6667 9.83114 12.6667 6.33333C 12.6667 2.83553 9.83114 0 6.33333 0C 2.83553 0 0 2.83553 0 6.33333C 0 9.83114 2.83553 12.6667 6.33333 12.6667Z" transform="translate(115.8 425.333) scale(2)" fill="#CB2026" fill-opacity="0.4"/>
</g>
</g>
<g id="Target Copy 72">
<g id="_Compound_Path__31">
<path fill-rule="evenodd" clip-rule="evenodd" d="M 0 19C 0 29.4934 8.50659 38 19 38C 29.4934 38 38 29.4934 38 19C 38 13.9609 35.9982 9.12817 32.435 5.56494C 28.8718 2.00177 24.0391 0 19 0C 8.50659 0 0 8.50659 0 19ZM 6.33334 19C 6.33334 12.0044 12.0044 6.33331 19 6.33331C 25.9956 6.33331 31.6667 12.0044 31.6667 19C 31.6667 25.9956 25.9956 31.6666 19 31.6666C 12.0044 31.6666 6.33334 25.9956 6.33334 19Z" transform="translate(90 646) scale(2)" fill="#CB2026" fill-opacity="0.4"/>
</g>
<g id="_Path__27">
<path d="M 6.33333 12.6667C 9.83114 12.6667 12.6667 9.83114 12.6667 6.33333C 12.6667 2.83553 9.83114 0 6.33333 0C 2.83553 0 0 2.83553 0 6.33333C 0 9.83114 2.83553 12.6667 6.33333 12.6667Z" transform="translate(115.8 671.333) scale(2)" fill="#CB2026" fill-opacity="0.4"/>
</g>
</g>
<g id="Target Copy 99">
<g id="_Compound_Path__32">
<path fill-rule="evenodd" clip-rule="evenodd" d="M 0 19C 0 29.4934 8.50659 38 19 38C 29.4934 38 38 29.4934 38 19C 38 13.9609 35.9982 9.12817 32.435 5.56494C 28.8718 2.00177 24.0391 0 19 0C 8.50659 0 0 8.50659 0 19ZM 6.33334 19C 6.33334 12.0044 12.0044 6.33331 19 6.33331C 25.9956 6.33331 31.6667 12.0044 31.6667 19C 31.6667 25.9956 25.9956 31.6666 19 31.6666C 12.0044 31.6666 6.33334 25.9956 6.33334 19Z" transform="translate(90 894) scale(2)" fill="#CB2026" fill-opacity="0.4"/>
</g>
<g id="_Path__28">
<path d="M 6.33333 12.6667C 9.83114 12.6667 12.6667 9.83114 12.6667 6.33333C 12.6667 2.83553 9.83114 0 6.33333 0C 2.83553 0 0 2.83553 0 6.33333C 0 9.83114 2.83553 12.6667 6.33333 12.6667Z" transform="translate(115.8 919.333) scale(2)" fill="#CB2026" fill-opacity="0.4"/>
</g>
</g>
<g id="Target Copy 25">
<g id="_Compound_Path__33">
<path fill-rule="evenodd" clip-rule="evenodd" d="M 0 19C 0 29.4934 8.50659 38 19 38C 29.4934 38 38 29.4934 38 19C 38 13.9609 35.9982 9.12817 32.435 5.56494C 28.8718 2.00183 24.0391 0 19 0C 8.50659 0 0 8.50659 0 19ZM 6.33333 19C 6.33333 12.0044 12.0044 6.33331 19 6.33331C 25.9956 6.33331 31.6667 12.0044 31.6667 19C 31.6667 25.9956 25.9956 31.6666 19 31.6666C 12.0044 31.6666 6.33333 25.9956 6.33333 19Z" transform="translate(716 154) scale(2)" fill="#CB2026" fill-opacity="0.4"/>
</g>
<g id="_Path__29">
<path d="M 6.33333 12.6667C 9.83114 12.6667 12.6667 9.83114 12.6667 6.33333C 12.6667 2.83553 9.83114 0 6.33333 0C 2.83553 0 0 2.83553 0 6.33333C 0 9.83114 2.83553 12.6667 6.33333 12.6667Z" transform="translate(741.8 179.333) scale(2)" fill="#CB2026" fill-opacity="0.4"/>
</g>
</g>
<g id="Target Copy 51">
<g id="_Compound_Path__34">
<path fill-rule="evenodd" clip-rule="evenodd" d="M 0 19C 0 29.4934 8.50659 38 19 38C 29.4934 38 38 29.4934 38 19C 38 13.9609 35.9982 9.12817 32.435 5.56494C 28.8718 2.00177 24.0391 0 19 0C 8.50659 0 0 8.50659 0 19ZM 6.33333 19C 6.33333 12.0044 12.0044 6.33331 19 6.33331C 25.9956 6.33331 31.6667 12.0044 31.6667 19C 31.6667 25.9956 25.9956 31.6666 19 31.6666C 12.0044 31.6666 6.33333 25.9956 6.33333 19Z" transform="translate(716 400) scale(2)" fill="#CB2026" fill-opacity="0.4"/>
</g>
<g id="_Path__30">
<path d="M 6.33333 12.6667C 9.83114 12.6667 12.6667 9.83114 12.6667 6.33333C 12.6667 2.83553 9.83114 0 6.33333 0C 2.83553 0 0 2.83553 0 6.33333C 0 9.83114 2.83553 12.6667 6.33333 12.6667Z" transform="translate(741.8 425.333) scale(2)" fill="#CB2026" fill-opacity="0.4"/>
</g>
</g>
<g id="Target Copy 78">
<g id="_Compound_Path__35">
<path fill-rule="evenodd" clip-rule="evenodd" d="M 0 19C 0 29.4934 8.50659 38 19 38C 29.4934 38 38 29.4934 38 19C 38 13.9609 35.9982 9.12817 32.435 5.56494C 28.8718 2.00177 24.0391 0 19 0C 8.50659 0 0 8.50659 0 19ZM 6.33333 19C 6.33333 12.0044 12.0044 6.33331 19 6.33331C 25.9956 6.33331 31.6667 12.0044 31.6667 19C 31.6667 25.9956 25.9956 31.6666 19 31.6666C 12.0044 31.6666 6.33333 25.9956 6.33333 19Z" transform="translate(716 646) scale(2)" fill="#CB2026" fill-opacity="0.4"/>
</g>
<g id="_Path__31">
<path d="M 6.33333 12.6667C 9.83114 12.6667 12.6667 9.83114 12.6667 6.33333C 12.6667 2.83553 9.83114 0 6.33333 0C 2.83553 0 0 2.83553 0 6.33333C 0 9.83114 2.83553 12.6667 6.33333 12.6667Z" transform="translate(741.8 671.333) scale(2)" fill="#CB2026" fill-opacity="0.4"/>
</g>
</g>
<g id="Target Copy 105">
<g id="_Compound_Path__36">
<path fill-rule="evenodd" clip-rule="evenodd" d="M 0 19C 0 29.4934 8.50659 38 19 38C 29.4934 38 38 29.4934 38 19C 38 13.9609 35.9982 9.12817 32.435 5.56494C 28.8718 2.00177 24.0391 0 19 0C 8.50659 0 0 8.50659 0 19ZM 6.33333 19C 6.33333 12.0044 12.0044 6.33331 19 6.33331C 25.9956 6.33331 31.6667 12.0044 31.6667 19C 31.6667 25.9956 25.9956 31.6666 19 31.6666C 12.0044 31.6666 6.33333 25.9956 6.33333 19Z" transform="translate(716 894) scale(2)" fill="#CB2026" fill-opacity="0.4"/>
</g>
<g id="_Path__32">
<path d="M 6.33333 12.6667C 9.83114 12.6667 12.6667 9.83114 12.6667 6.33333C 12.6667 2.83553 9.83114 0 6.33333 0C 2.83553 0 0 2.83553 0 6.33333C 0 9.83114 2.83553 12.6667 6.33333 12.6667Z" transform="translate(741.8 919.333) scale(2)" fill="#CB2026" fill-opacity="0.4"/>
</g>
</g>
<g id="Target Copy 7">
<g id="_Compound_Path__37">
<path fill-rule="evenodd" clip-rule="evenodd" d="M 0 19C 0 29.4934 8.50659 38 19 38C 29.4934 38 38 29.4934 38 19C 38 13.9609 35.9982 9.12817 32.435 5.56494C 28.8718 2.00183 24.0391 0 19 0C 8.50659 0 0 8.50659 0 19ZM 6.33334 19C 6.33334 12.0044 12.0044 6.33337 19 6.33337C 25.9956 6.33337 31.6667 12.0044 31.6667 19C 31.6667 25.9956 25.9956 31.6667 19 31.6667C 12.0044 31.6667 6.33334 25.9956 6.33334 19Z" transform="translate(478 30) scale(2)" fill="#CB2026" fill-opacity="0.4"/>
</g>
<g id="_Path__33">
<path d="M 6.33333 12.6667C 9.83114 12.6667 12.6667 9.83114 12.6667 6.33333C 12.6667 2.83553 9.83114 0 6.33333 0C 2.83553 0 0 2.83553 0 6.33333C 0 9.83114 2.83553 12.6667 6.33333 12.6667Z" transform="translate(503.8 55.3333) scale(2)" fill="#CB2026" fill-opacity="0.4"/>
</g>
</g>
<g id="Target Copy 52">
<g id="_Compound_Path__38">
<path fill-rule="evenodd" clip-rule="evenodd" d="M 0 19C 0 29.4934 8.50659 38 19 38C 29.4934 38 38 29.4934 38 19C 38 13.9609 35.9982 9.12817 32.435 5.56494C 28.8718 2.00177 24.0391 0 19 0C 8.50659 0 0 8.50659 0 19ZM 6.33334 19C 6.33334 12.0044 12.0044 6.33331 19 6.33331C 25.9956 6.33331 31.6667 12.0044 31.6667 19C 31.6667 25.9956 25.9956 31.6666 19 31.6666C 12.0044 31.6666 6.33334 25.9956 6.33334 19Z" transform="translate(478 276) scale(2)" fill="#CB2026" fill-opacity="0.4"/>
</g>
<g id="_Path__34">
<path d="M 6.33333 12.6667C 9.83114 12.6667 12.6667 9.83114 12.6667 6.33333C 12.6667 2.83553 9.83114 0 6.33333 0C 2.83553 0 0 2.83553 0 6.33333C 0 9.83114 2.83553 12.6667 6.33333 12.6667Z" transform="translate(503.8 301.333) scale(2)" fill="#CB2026" fill-opacity="0.4"/>
</g>
</g>
<g id="Target Copy 79">
<g id="_Compound_Path__39">
<path fill-rule="evenodd" clip-rule="evenodd" d="M 0 19C 0 29.4934 8.50659 38 19 38C 29.4934 38 38 29.4934 38 19C 38 13.9609 35.9982 9.12817 32.435 5.56494C 28.8718 2.00177 24.0391 0 19 0C 8.50659 0 0 8.50659 0 19ZM 6.33334 19C 6.33334 12.0044 12.0044 6.33331 19 6.33331C 25.9956 6.33331 31.6667 12.0044 31.6667 19C 31.6667 25.9956 25.9956 31.6666 19 31.6666C 12.0044 31.6666 6.33334 25.9956 6.33334 19Z" transform="translate(478 522) scale(2)" fill="#CB2026" fill-opacity="0.4"/>
</g>
<g id="_Path__35">
<path d="M 6.33333 12.6667C 9.83114 12.6667 12.6667 9.83114 12.6667 6.33333C 12.6667 2.83553 9.83114 0 6.33333 0C 2.83553 0 0 2.83553 0 6.33333C 0 9.83114 2.83553 12.6667 6.33333 12.6667Z" transform="translate(503.8 547.333) scale(2)" fill="#CB2026" fill-opacity="0.4"/>
</g>
</g>
<g id="Target Copy 106">
<g id="_Compound_Path__40">
<path fill-rule="evenodd" clip-rule="evenodd" d="M 0 19C 0 29.4934 8.50659 38 19 38C 29.4934 38 38 29.4934 38 19C 38 13.9609 35.9982 9.12817 32.435 5.56494C 28.8718 2.00177 24.0391 0 19 0C 8.50659 0 0 8.50659 0 19ZM 6.33334 19C 6.33334 12.0044 12.0044 6.33331 19 6.33331C 25.9956 6.33331 31.6667 12.0044 31.6667 19C 31.6667 25.9956 25.9956 31.6666 19 31.6666C 12.0044 31.6666 6.33334 25.9956 6.33334 19Z" transform="translate(478 768) scale(2)" fill="#CB2026" fill-opacity="0.4"/>
</g>
<g id="_Path__36">
<path d="M 6.33333 12.6667C 9.83114 12.6667 12.6667 9.83114 12.6667 6.33333C 12.6667 2.83553 9.83114 0 6.33333 0C 2.83553 0 0 2.83553 0 6.33333C 0 9.83114 2.83553 12.6667 6.33333 12.6667Z" transform="translate(503.8 793.333) scale(2)" fill="#CB2026" fill-opacity="0.4"/>
</g>
</g>
<g id="Target Copy 26">
<g id="_Compound_Path__41">
<path fill-rule="evenodd" clip-rule="evenodd" d="M 0 19C 0 29.4934 8.50659 38 19 38C 29.4934 38 38 29.4934 38 19C 38 13.9609 35.9982 9.12817 32.435 5.56494C 28.8718 2.00183 24.0391 0 19 0C 8.50659 0 0 8.50659 0 19ZM 6.33333 19C 6.33333 12.0044 12.0044 6.33331 19 6.33331C 25.9956 6.33331 31.6667 12.0044 31.6667 19C 31.6667 25.9956 25.9956 31.6666 19 31.6666C 12.0044 31.6666 6.33333 25.9956 6.33333 19Z" transform="translate(404 154) scale(2)" fill="#CB2026" fill-opacity="0.4"/>
</g>
<g id="_Path__37">
<path d="M 6.33333 12.6667C 9.83114 12.6667 12.6667 9.83114 12.6667 6.33333C 12.6667 2.83553 9.83114 0 6.33333 0C 2.83553 0 0 2.83553 0 6.33333C 0 9.83114 2.83553 12.6667 6.33333 12.6667Z" transform="translate(429.8 179.333) scale(2)" fill="#CB2026" fill-opacity="0.4"/>
</g>
</g>
<g id="Target Copy 53">
<g id="_Compound_Path__42">
<path fill-rule="evenodd" clip-rule="evenodd" d="M 0 19C 0 29.4934 8.50659 38 19 38C 29.4934 38 38 29.4934 38 19C 38 13.9609 35.9982 9.12817 32.435 5.56494C 28.8718 2.00177 24.0391 0 19 0C 8.50659 0 0 8.50659 0 19ZM 6.33333 19C 6.33333 12.0044 12.0044 6.33331 19 6.33331C 25.9956 6.33331 31.6667 12.0044 31.6667 19C 31.6667 25.9956 25.9956 31.6666 19 31.6666C 12.0044 31.6666 6.33333 25.9956 6.33333 19Z" transform="translate(404 400) scale(2)" fill="#CB2026" fill-opacity="0.4"/>
</g>
<g id="_Path__38">
<path d="M 6.33333 12.6667C 9.83114 12.6667 12.6667 9.83114 12.6667 6.33333C 12.6667 2.83553 9.83114 0 6.33333 0C 2.83553 0 0 2.83553 0 6.33333C 0 9.83114 2.83553 12.6667 6.33333 12.6667Z" transform="translate(429.8 425.333) scale(2)" fill="#CB2026" fill-opacity="0.4"/>
</g>
</g>
<g id="Target Copy 80">
<g id="_Compound_Path__43">
<path fill-rule="evenodd" clip-rule="evenodd" d="M 0 19C 0 29.4934 8.50659 38 19 38C 29.4934 38 38 29.4934 38 19C 38 13.9609 35.9982 9.12817 32.435 5.56494C 28.8718 2.00177 24.0391 0 19 0C 8.50659 0 0 8.50659 0 19ZM 6.33333 19C 6.33333 12.0044 12.0044 6.33331 19 6.33331C 25.9956 6.33331 31.6667 12.0044 31.6667 19C 31.6667 25.9956 25.9956 31.6666 19 31.6666C 12.0044 31.6666 6.33333 25.9956 6.33333 19Z" transform="translate(404 646) scale(2)" fill="#CB2026" fill-opacity="0.4"/>
</g>
<g id="_Path__39">
<path d="M 6.33333 12.6667C 9.83114 12.6667 12.6667 9.83114 12.6667 6.33333C 12.6667 2.83553 9.83114 0 6.33333 0C 2.83553 0 0 2.83553 0 6.33333C 0 9.83114 2.83553 12.6667 6.33333 12.6667Z" transform="translate(429.8 671.333) scale(2)" fill="#CB2026" fill-opacity="0.4"/>
</g>
</g>
<g id="Target Copy 107">
<g id="_Compound_Path__44">
<path fill-rule="evenodd" clip-rule="evenodd" d="M 0 19C 0 29.4934 8.50659 38 19 38C 29.4934 38 38 29.4934 38 19C 38 13.9609 35.9982 9.12817 32.435 5.56494C 28.8718 2.00177 24.0391 0 19 0C 8.50659 0 0 8.50659 0 19ZM 6.33333 19C 6.33333 12.0044 12.0044 6.33331 19 6.33331C 25.9956 6.33331 31.6667 12.0044 31.6667 19C 31.6667 25.9956 25.9956 31.6666 19 31.6666C 12.0044 31.6666 6.33333 25.9956 6.33333 19Z" transform="translate(404 894) scale(2)" fill="#CB2026" fill-opacity="0.4"/>
</g>
<g id="_Path__40">
<path d="M 6.33333 12.6667C 9.83114 12.6667 12.6667 9.83114 12.6667 6.33333C 12.6667 2.83553 9.83114 0 6.33333 0C 2.83553 0 0 2.83553 0 6.33333C 0 9.83114 2.83553 12.6667 6.33333 12.6667Z" transform="translate(429.8 919.333) scale(2)" fill="#CB2026" fill-opacity="0.4"/>
</g>
</g>
</g>
</g>
</g>
</g>
</svg>

