<svg width="1080" height="422" viewBox="0 0 1080 422" version="1.1" xmlns="http://www.w3.org/2000/svg" xmlns:xlink="http://www.w3.org/1999/xlink">
<g id="Canvas" fill="none">
<g id="Target">
<g id="Mask">
<path fill-rule="evenodd" clip-rule="evenodd" d="M 0 0L 1080 0L 1080 422L 0 422L 0 0Z" fill="#8D0305"/>
</g>
<mask id="mask0" mask-type="alpha" maskUnits="userSpaceOnUse" x="0" y="0" width="1080" height="422">
<g id="Mask_2">
<path fill-rule="evenodd" clip-rule="evenodd" d="M 0 0L 1080 0L 1080 422L 0 422L 0 0Z" fill="white"/>
</g>
</mask>
<g mask="url(#mask0)">
<g id="Group 4" opacity="0.395833">
<g id="Target_2">
<g id="_Compound_Path_">
<path fill-rule="evenodd" clip-rule="evenodd" d="M 0 19C 0 29.4934 8.50659 38 19 38C 29.4934 38 38 29.4934 38 19C 38 13.9609 35.9982 9.12817 32.4351 5.56494C 28.8718 2.00183 24.0391 0 19 0C 8.50659 0 0 8.50659 0 19ZM 6.33331 19C 6.33331 12.0044 12.0044 6.33337 19 6.33337C 25.9956 6.33337 31.6666 12.0044 31.6666 19C 31.6666 25.9956 25.9956 31.6667 19 31.6667C 12.0044 31.6667 6.33331 25.9956 6.33331 19Z" transform="translate(42 6)" fill="#CB2026" fill-opacity="0.4"/>
</g>
<g id="_Path_">
<path d="M 6.33333 12.6667C 9.83114 12.6667 12.6667 9.83114 12.6667 6.33333C 12.6667 2.83553 9.83114 0 6.33333 0C 2.83553 0 0 2.83553 0 6.33333C 0 9.83114 2.83553 12.6667 6.33333 12.6667Z" transform="translate(54.8998 18.6666)" fill="#CB2026" fill-opacity="0.4"/>
</g>
</g>
<g id="Target Copy 28">
<g id="_Compound_Path__2">
<path fill-rule="evenodd" clip-rule="evenodd" d="M 0 19C 0 29.4934 8.50659 38 19 38C 29.4934 38 38 29.4934 38 19C 38 13.9609 35.9982 9.12817 32.4351 5.56494C 28.8718 2.00177 24.0391 0 19 0C 8.50659 0 0 8.50659 0 19ZM 6.33331 19C 6.33331 12.0044 12.0044 6.33331 19 6.33331C 25.9956 6.33331 31.6666 12.0044 31.6666 19C 31.6666 25.9956 25.9956 31.6666 19 31.6666C 12.0044 31.6666 6.33331 25.9956 6.33331 19Z" transform="translate(42 129)" fill="#CB2026" fill-opacity="0.4"/>
</g>
<g id="_Path__2">
<path d="M 6.33333 12.6667C 9.83114 12.6667 12.6667 9.83114 12.6667 6.33333C 12.6667 2.83553 9.83114 0 6.33333 0C 2.83553 0 0 2.83553 0 6.33333C 0 9.83114 2.83553 12.6667 6.33333 12.6667Z" transform="translate(54.8998 141.667)" fill="#CB2026" fill-opacity="0.4"/>
</g>
</g>
<g id="Target Copy 55">
<g id="_Compound_Path__3">
<path fill-rule="evenodd" clip-rule="evenodd" d="M 0 19C 0 29.4934 8.50659 38 19 38C 29.4934 38 38 29.4934 38 19C 38 13.9609 35.9982 9.12817 32.4351 5.56494C 28.8718 2.00177 24.0391 0 19 0C 8.50659 0 0 8.50659 0 19ZM 6.33331 19C 6.33331 12.0044 12.0044 6.33331 19 6.33331C 25.9956 6.33331 31.6666 12.0044 31.6666 19C 31.6666 25.9956 25.9956 31.6666 19 31.6666C 12.0044 31.6666 6.33331 25.9956 6.33331 19Z" transform="translate(42 252)" fill="#CB2026" fill-opacity="0.4"/>
</g>
<g id="_Path__3">
<path d="M 6.33333 12.6667C 9.83114 12.6667 12.6667 9.83114 12.6667 6.33333C 12.6667 2.83553 9.83114 0 6.33333 0C 2.83553 0 0 2.83553 0 6.33333C 0 9.83114 2.83553 12.6667 6.33333 12.6667Z" transform="translate(54.8998 264.667)" fill="#CB2026" fill-opacity="0.4"/>
</g>
</g>
<g id="Target Copy 82">
<g id="_Compound_Path__4">
<path fill-rule="evenodd" clip-rule="evenodd" d="M 0 19C 0 29.4934 8.50659 38 19 38C 29.4934 38 38 29.4934 38 19C 38 13.9609 35.9982 9.12817 32.4351 5.56494C 28.8718 2.00177 24.0391 0 19 0C 8.50659 0 0 8.50659 0 19ZM 6.33331 19C 6.33331 12.0044 12.0044 6.33331 19 6.33331C 25.9956 6.33331 31.6666 12.0044 31.6666 19C 31.6666 25.9956 25.9956 31.6666 19 31.6666C 12.0044 31.6666 6.33331 25.9956 6.33331 19Z" transform="translate(42 375)" fill="#CB2026" fill-opacity="0.4"/>
</g>
<g id="_Path__4">
<path d="M 6.33333 12.6667C 9.83114 12.6667 12.6667 9.83114 12.6667 6.33333C 12.6667 2.83553 9.83114 0 6.33333 0C 2.83553 0 0 2.83553 0 6.33333C 0 9.83114 2.83553 12.6667 6.33333 12.6667Z" transform="translate(54.8998 387.667)" fill="#CB2026" fill-opacity="0.4"/>
</g>
</g>
<g id="Target Copy 14">
<g id="_Compound_Path__5">
<path fill-rule="evenodd" clip-rule="evenodd" d="M 0 19C 0 29.4934 8.50659 38 19 38C 29.4934 38 38 29.4934 38 19C 38 13.9609 35.9982 9.12817 32.435 5.56494C 28.8718 2.00177 24.0391 0 19 0C 8.50659 0 0 8.50659 0 19ZM 6.33334 19C 6.33334 12.0044 12.0044 6.33331 19 6.33331C 25.9956 6.33331 31.6667 12.0044 31.6667 19C 31.6667 25.9956 25.9956 31.6666 19 31.6666C 12.0044 31.6666 6.33334 25.9956 6.33334 19Z" transform="translate(5 68)" fill="#CB2026" fill-opacity="0.4"/>
</g>
<g id="_Path__5">
<path d="M 6.33333 12.6667C 9.83114 12.6667 12.6667 9.83114 12.6667 6.33333C 12.6667 2.83553 9.83114 0 6.33333 0C 2.83553 0 0 2.83553 0 6.33333C 0 9.83114 2.83553 12.6667 6.33333 12.6667Z" transform="translate(17.8998 80.6667)" fill="#CB2026" fill-opacity="0.4"/>
</g>
</g>
<g id="Target Copy 29">
<g id="_Compound_Path__6">
<path fill-rule="evenodd" clip-rule="evenodd" d="M 0 19C 0 29.4934 8.50659 38 19 38C 29.4934 38 38 29.4934 38 19C 38 13.9609 35.9982 9.12817 32.435 5.56494C 28.8718 2.00177 24.0391 0 19 0C 8.50659 0 0 8.50659 0 19ZM 6.33334 19C 6.33334 12.0044 12.0044 6.33331 19 6.33331C 25.9956 6.33331 31.6667 12.0044 31.6667 19C 31.6667 25.9956 25.9956 31.6666 19 31.6666C 12.0044 31.6666 6.33334 25.9956 6.33334 19Z" transform="translate(5 191)" fill="#CB2026" fill-opacity="0.4"/>
</g>
<g id="_Path__6">
<path d="M 6.33333 12.6667C 9.83114 12.6667 12.6667 9.83114 12.6667 6.33333C 12.6667 2.83553 9.83114 0 6.33333 0C 2.83553 0 0 2.83553 0 6.33333C 0 9.83114 2.83553 12.6667 6.33333 12.6667Z" transform="translate(17.8998 203.667)" fill="#CB2026" fill-opacity="0.4"/>
</g>
</g>
<g id="Target Copy 56">
<g id="_Compound_Path__7">
<path fill-rule="evenodd" clip-rule="evenodd" d="M 0 19C 0 29.4934 8.50659 38 19 38C 29.4934 38 38 29.4934 38 19C 38 13.9609 35.9982 9.12817 32.435 5.56494C 28.8718 2.00177 24.0391 0 19 0C 8.50659 0 0 8.50659 0 19ZM 6.33334 19C 6.33334 12.0044 12.0044 6.33331 19 6.33331C 25.9956 6.33331 31.6667 12.0044 31.6667 19C 31.6667 25.9956 25.9956 31.6666 19 31.6666C 12.0044 31.6666 6.33334 25.9956 6.33334 19Z" transform="translate(5 314)" fill="#CB2026" fill-opacity="0.4"/>
</g>
<g id="_Path__7">
<path d="M 6.33333 12.6667C 9.83114 12.6667 12.6667 9.83114 12.6667 6.33333C 12.6667 2.83553 9.83114 0 6.33333 0C 2.83553 0 0 2.83553 0 6.33333C 0 9.83114 2.83553 12.6667 6.33333 12.6667Z" transform="translate(17.8998 326.667)" fill="#CB2026" fill-opacity="0.4"/>
</g>
</g>
<g id="Target Copy 4">
<g id="_Compound_Path__8">
<path fill-rule="evenodd" clip-rule="evenodd" d="M 0 19C 0 29.4934 8.50659 38 19 38C 29.4934 38 38 29.4934 38 19C 38 13.9609 35.9982 9.12817 32.4351 5.56494C 28.8718 2.00183 24.0391 0 19 0C 8.50659 0 0 8.50659 0 19ZM 6.33331 19C 6.33331 12.0044 12.0044 6.33337 19 6.33337C 25.9956 6.33337 31.6666 12.0044 31.6666 19C 31.6666 25.9956 25.9956 31.6667 19 31.6667C 12.0044 31.6667 6.33331 25.9956 6.33331 19Z" transform="translate(356 6)" fill="#CB2026" fill-opacity="0.4"/>
</g>
<g id="_Path__8">
<path d="M 6.33333 12.6667C 9.83114 12.6667 12.6667 9.83114 12.6667 6.33333C 12.6667 2.83553 9.83114 0 6.33333 0C 2.83553 0 0 2.83553 0 6.33333C 0 9.83114 2.83553 12.6667 6.33333 12.6667Z" transform="translate(368.9 18.6666)" fill="#CB2026" fill-opacity="0.4"/>
</g>
</g>
<g id="Target Copy 30">
<g id="_Compound_Path__9">
<path fill-rule="evenodd" clip-rule="evenodd" d="M 0 19C 0 29.4934 8.50659 38 19 38C 29.4934 38 38 29.4934 38 19C 38 13.9609 35.9982 9.12817 32.4351 5.56494C 28.8718 2.00177 24.0391 0 19 0C 8.50659 0 0 8.50659 0 19ZM 6.33331 19C 6.33331 12.0044 12.0044 6.33331 19 6.33331C 25.9956 6.33331 31.6666 12.0044 31.6666 19C 31.6666 25.9956 25.9956 31.6666 19 31.6666C 12.0044 31.6666 6.33331 25.9956 6.33331 19Z" transform="translate(356 129)" fill="#CB2026" fill-opacity="0.4"/>
</g>
<g id="_Path__9">
<path d="M 6.33333 12.6667C 9.83114 12.6667 12.6667 9.83114 12.6667 6.33333C 12.6667 2.83553 9.83114 0 6.33333 0C 2.83553 0 0 2.83553 0 6.33333C 0 9.83114 2.83553 12.6667 6.33333 12.6667Z" transform="translate(368.9 141.667)" fill="#CB2026" fill-opacity="0.4"/>
</g>
</g>
<g id="Target Copy 57">
<g id="_Compound_Path__10">
<path fill-rule="evenodd" clip-rule="evenodd" d="M 0 19C 0 29.4934 8.50659 38 19 38C 29.4934 38 38 29.4934 38 19C 38 13.9609 35.9982 9.12817 32.4351 5.56494C 28.8718 2.00177 24.0391 0 19 0C 8.50659 0 0 8.50659 0 19ZM 6.33331 19C 6.33331 12.0044 12.0044 6.33331 19 6.33331C 25.9956 6.33331 31.6666 12.0044 31.6666 19C 31.6666 25.9956 25.9956 31.6666 19 31.6666C 12.0044 31.6666 6.33331 25.9956 6.33331 19Z" transform="translate(356 252)" fill="#CB2026" fill-opacity="0.4"/>
</g>
<g id="_Path__10">
<path d="M 6.33333 12.6667C 9.83114 12.6667 12.6667 9.83114 12.6667 6.33333C 12.6667 2.83553 9.83114 0 6.33333 0C 2.83553 0 0 2.83553 0 6.33333C 0 9.83114 2.83553 12.6667 6.33333 12.6667Z" transform="translate(368.9 264.667)" fill="#CB2026" fill-opacity="0.4"/>
</g>
</g>
<g id="Target Copy 84">
<g id="_Compound_Path__11">
<path fill-rule="evenodd" clip-rule="evenodd" d="M 0 19C 0 29.4934 8.50659 38 19 38C 29.4934 38 38 29.4934 38 19C 38 13.9609 35.9982 9.12817 32.4351 5.56494C 28.8718 2.00177 24.0391 0 19 0C 8.50659 0 0 8.50659 0 19ZM 6.33331 19C 6.33331 12.0044 12.0044 6.33331 19 6.33331C 25.9956 6.33331 31.6666 12.0044 31.6666 19C 31.6666 25.9956 25.9956 31.6666 19 31.6666C 12.0044 31.6666 6.33331 25.9956 6.33331 19Z" transform="translate(356 375)" fill="#CB2026" fill-opacity="0.4"/>
</g>
<g id="_Path__11">
<path d="M 6.33333 12.6667C 9.83114 12.6667 12.6667 9.83114 12.6667 6.33333C 12.6667 2.83553 9.83114 0 6.33333 0C 2.83553 0 0 2.83553 0 6.33333C 0 9.83114 2.83553 12.6667 6.33333 12.6667Z" transform="translate(368.9 387.667)" fill="#CB2026" fill-opacity="0.4"/>
</g>
</g>
<g id="Target Copy 15">
<g id="_Compound_Path__12">
<path fill-rule="evenodd" clip-rule="evenodd" d="M 0 19C 0 29.4934 8.50659 38 19 38C 29.4934 38 38 29.4934 38 19C 38 13.9609 35.9982 9.12817 32.4351 5.56494C 28.8718 2.00177 24.0391 0 19 0C 8.50659 0 0 8.50659 0 19ZM 6.33331 19C 6.33331 12.0044 12.0044 6.33331 19 6.33331C 25.9956 6.33331 31.6666 12.0044 31.6666 19C 31.6666 25.9956 25.9956 31.6666 19 31.6666C 12.0044 31.6666 6.33331 25.9956 6.33331 19Z" transform="translate(318 68)" fill="#CB2026" fill-opacity="0.4"/>
</g>
<g id="_Path__12">
<path d="M 6.33333 12.6667C 9.83114 12.6667 12.6667 9.83114 12.6667 6.33333C 12.6667 2.83553 9.83114 0 6.33333 0C 2.83553 0 0 2.83553 0 6.33333C 0 9.83114 2.83553 12.6667 6.33333 12.6667Z" transform="translate(330.9 80.6667)" fill="#CB2026" fill-opacity="0.4"/>
</g>
</g>
<g id="Target Copy 31">
<g id="_Compound_Path__13">
<path fill-rule="evenodd" clip-rule="evenodd" d="M 0 19C 0 29.4934 8.50659 38 19 38C 29.4934 38 38 29.4934 38 19C 38 13.9609 35.9982 9.12817 32.4351 5.56494C 28.8718 2.00177 24.0391 0 19 0C 8.50659 0 0 8.50659 0 19ZM 6.33331 19C 6.33331 12.0044 12.0044 6.33331 19 6.33331C 25.9956 6.33331 31.6666 12.0044 31.6666 19C 31.6666 25.9956 25.9956 31.6666 19 31.6666C 12.0044 31.6666 6.33331 25.9956 6.33331 19Z" transform="translate(318 191)" fill="#CB2026" fill-opacity="0.4"/>
</g>
<g id="_Path__13">
<path d="M 6.33333 12.6667C 9.83114 12.6667 12.6667 9.83114 12.6667 6.33333C 12.6667 2.83553 9.83114 0 6.33333 0C 2.83553 0 0 2.83553 0 6.33333C 0 9.83114 2.83553 12.6667 6.33333 12.6667Z" transform="translate(330.9 203.667)" fill="#CB2026" fill-opacity="0.4"/>
</g>
</g>
<g id="Target Copy 58">
<g id="_Compound_Path__14">
<path fill-rule="evenodd" clip-rule="evenodd" d="M 0 19C 0 29.4934 8.50659 38 19 38C 29.4934 38 38 29.4934 38 19C 38 13.9609 35.9982 9.12817 32.4351 5.56494C 28.8718 2.00177 24.0391 0 19 0C 8.50659 0 0 8.50659 0 19ZM 6.33331 19C 6.33331 12.0044 12.0044 6.33331 19 6.33331C 25.9956 6.33331 31.6666 12.0044 31.6666 19C 31.6666 25.9956 25.9956 31.6666 19 31.6666C 12.0044 31.6666 6.33331 25.9956 6.33331 19Z" transform="translate(318 314)" fill="#CB2026" fill-opacity="0.4"/>
</g>
<g id="_Path__14">
<path d="M 6.33333 12.6667C 9.83114 12.6667 12.6667 9.83114 12.6667 6.33333C 12.6667 2.83553 9.83114 0 6.33333 0C 2.83553 0 0 2.83553 0 6.33333C 0 9.83114 2.83553 12.6667 6.33333 12.6667Z" transform="translate(330.9 326.667)" fill="#CB2026" fill-opacity="0.4"/>
</g>
</g>
<g id="Target Copy 8">
<g id="_Compound_Path__15">
<path fill-rule="evenodd" clip-rule="evenodd" d="M 0 19C 0 29.4934 8.50659 38 19 38C 29.4934 38 38 29.4934 38 19C 38 13.9609 35.9982 9.12817 32.4351 5.56494C 28.8718 2.00183 24.0391 0 19 0C 8.50659 0 0 8.50659 0 19ZM 6.33337 19C 6.33337 12.0044 12.0044 6.33337 19 6.33337C 25.9956 6.33337 31.6667 12.0044 31.6667 19C 31.6667 25.9956 25.9956 31.6667 19 31.6667C 12.0044 31.6667 6.33337 25.9956 6.33337 19Z" transform="translate(825 6)" fill="#CB2026" fill-opacity="0.4"/>
</g>
<g id="_Path__15">
<path d="M 6.33333 12.6667C 9.83114 12.6667 12.6667 9.83114 12.6667 6.33333C 12.6667 2.83553 9.83114 0 6.33333 0C 2.83553 0 0 2.83553 0 6.33333C 0 9.83114 2.83553 12.6667 6.33333 12.6667Z" transform="translate(837.9 18.6666)" fill="#CB2026" fill-opacity="0.4"/>
</g>
</g>
<g id="Target Copy 32">
<g id="_Compound_Path__16">
<path fill-rule="evenodd" clip-rule="evenodd" d="M 0 19C 0 29.4934 8.50659 38 19 38C 29.4934 38 38 29.4934 38 19C 38 13.9609 35.9982 9.12817 32.4351 5.56494C 28.8718 2.00177 24.0391 0 19 0C 8.50659 0 0 8.50659 0 19ZM 6.33337 19C 6.33337 12.0044 12.0044 6.33331 19 6.33331C 25.9956 6.33331 31.6667 12.0044 31.6667 19C 31.6667 25.9956 25.9956 31.6666 19 31.6666C 12.0044 31.6666 6.33337 25.9956 6.33337 19Z" transform="translate(825 129)" fill="#CB2026" fill-opacity="0.4"/>
</g>
<g id="_Path__16">
<path d="M 6.33333 12.6667C 9.83114 12.6667 12.6667 9.83114 12.6667 6.33333C 12.6667 2.83553 9.83114 0 6.33333 0C 2.83553 0 0 2.83553 0 6.33333C 0 9.83114 2.83553 12.6667 6.33333 12.6667Z" transform="translate(837.9 141.667)" fill="#CB2026" fill-opacity="0.4"/>
</g>
</g>
<g id="Target Copy 59">
<g id="_Compound_Path__17">
<path fill-rule="evenodd" clip-rule="evenodd" d="M 0 19C 0 29.4934 8.50659 38 19 38C 29.4934 38 38 29.4934 38 19C 38 13.9609 35.9982 9.12817 32.4351 5.56494C 28.8718 2.00177 24.0391 0 19 0C 8.50659 0 0 8.50659 0 19ZM 6.33337 19C 6.33337 12.0044 12.0044 6.33331 19 6.33331C 25.9956 6.33331 31.6667 12.0044 31.6667 19C 31.6667 25.9956 25.9956 31.6666 19 31.6666C 12.0044 31.6666 6.33337 25.9956 6.33337 19Z" transform="translate(825 252)" fill="#CB2026" fill-opacity="0.4"/>
</g>
<g id="_Path__17">
<path d="M 6.33333 12.6667C 9.83114 12.6667 12.6667 9.83114 12.6667 6.33333C 12.6667 2.83553 9.83114 0 6.33333 0C 2.83553 0 0 2.83553 0 6.33333C 0 9.83114 2.83553 12.6667 6.33333 12.6667Z" transform="translate(837.9 264.667)" fill="#CB2026" fill-opacity="0.4"/>
</g>
</g>
<g id="Target Copy 86">
<g id="_Compound_Path__18">
<path fill-rule="evenodd" clip-rule="evenodd" d="M 0 19C 0 29.4934 8.50659 38 19 38C 29.4934 38 38 29.4934 38 19C 38 13.9609 35.9982 9.12817 32.4351 5.56494C 28.8718 2.00177 24.0391 0 19 0C 8.50659 0 0 8.50659 0 19ZM 6.33337 19C 6.33337 12.0044 12.0044 6.33331 19 6.33331C 25.9956 6.33331 31.6667 12.0044 31.6667 19C 31.6667 25.9956 25.9956 31.6666 19 31.6666C 12.0044 31.6666 6.33337 25.9956 6.33337 19Z" transform="translate(825 375)" fill="#CB2026" fill-opacity="0.4"/>
</g>
<g id="_Path__18">
<path d="M 6.33333 12.6667C 9.83114 12.6667 12.6667 9.83114 12.6667 6.33333C 12.6667 2.83553 9.83114 0 6.33333 0C 2.83553 0 0 2.83553 0 6.33333C 0 9.83114 2.83553 12.6667 6.33333 12.6667Z" transform="translate(837.9 387.667)" fill="#CB2026" fill-opacity="0.4"/>
</g>
</g>
<g id="Target Copy 16">
<g id="_Compound_Path__19">
<path fill-rule="evenodd" clip-rule="evenodd" d="M 0 19C 0 29.4934 8.50659 38 19 38C 29.4934 38 38 29.4934 38 19C 38 13.9609 35.9982 9.12817 32.4351 5.56494C 28.8718 2.00177 24.0391 0 19 0C 8.50659 0 0 8.50659 0 19ZM 6.33337 19C 6.33337 12.0044 12.0044 6.33331 19 6.33331C 25.9956 6.33331 31.6667 12.0044 31.6667 19C 31.6667 25.9956 25.9956 31.6666 19 31.6666C 12.0044 31.6666 6.33337 25.9956 6.33337 19Z" transform="translate(787 68)" fill="#CB2026" fill-opacity="0.4"/>
</g>
<g id="_Path__19">
<path d="M 6.33333 12.6667C 9.83114 12.6667 12.6667 9.83114 12.6667 6.33333C 12.6667 2.83553 9.83114 0 6.33333 0C 2.83553 0 0 2.83553 0 6.33333C 0 9.83114 2.83553 12.6667 6.33333 12.6667Z" transform="translate(799.9 80.6667)" fill="#CB2026" fill-opacity="0.4"/>
</g>
</g>
<g id="Target Copy 33">
<g id="_Compound_Path__20">
<path fill-rule="evenodd" clip-rule="evenodd" d="M 0 19C 0 29.4934 8.50659 38 19 38C 29.4934 38 38 29.4934 38 19C 38 13.9609 35.9982 9.12817 32.4351 5.56494C 28.8718 2.00177 24.0391 0 19 0C 8.50659 0 0 8.50659 0 19ZM 6.33337 19C 6.33337 12.0044 12.0044 6.33331 19 6.33331C 25.9956 6.33331 31.6667 12.0044 31.6667 19C 31.6667 25.9956 25.9956 31.6666 19 31.6666C 12.0044 31.6666 6.33337 25.9956 6.33337 19Z" transform="translate(787 191)" fill="#CB2026" fill-opacity="0.4"/>
</g>
<g id="_Path__20">
<path d="M 6.33333 12.6667C 9.83114 12.6667 12.6667 9.83114 12.6667 6.33333C 12.6667 2.83553 9.83114 0 6.33333 0C 2.83553 0 0 2.83553 0 6.33333C 0 9.83114 2.83553 12.6667 6.33333 12.6667Z" transform="translate(799.9 203.667)" fill="#CB2026" fill-opacity="0.4"/>
</g>
</g>
<g id="Target Copy 60">
<g id="_Compound_Path__21">
<path fill-rule="evenodd" clip-rule="evenodd" d="M 0 19C 0 29.4934 8.50659 38 19 38C 29.4934 38 38 29.4934 38 19C 38 13.9609 35.9982 9.12817 32.4351 5.56494C 28.8718 2.00177 24.0391 0 19 0C 8.50659 0 0 8.50659 0 19ZM 6.33337 19C 6.33337 12.0044 12.0044 6.33331 19 6.33331C 25.9956 6.33331 31.6667 12.0044 31.6667 19C 31.6667 25.9956 25.9956 31.6666 19 31.6666C 12.0044 31.6666 6.33337 25.9956 6.33337 19Z" transform="translate(787 314)" fill="#CB2026" fill-opacity="0.4"/>
</g>
<g id="_Path__21">
<path d="M 6.33333 12.6667C 9.83114 12.6667 12.6667 9.83114 12.6667 6.33333C 12.6667 2.83553 9.83114 0 6.33333 0C 2.83553 0 0 2.83553 0 6.33333C 0 9.83114 2.83553 12.6667 6.33333 12.6667Z" transform="translate(799.9 326.667)" fill="#CB2026" fill-opacity="0.4"/>
</g>
</g>
<g id="Target Copy 2">
<g id="_Compound_Path__22">
<path fill-rule="evenodd" clip-rule="evenodd" d="M 0 19C 0 29.4934 8.50659 38 19 38C 29.4934 38 38 29.4934 38 19C 38 13.9609 35.9982 9.12817 32.4351 5.56494C 28.8718 2.00183 24.0391 0 19 0C 8.50659 0 0 8.50659 0 19ZM 6.33331 19C 6.33331 12.0044 12.0044 6.33337 19 6.33337C 25.9956 6.33337 31.6666 12.0044 31.6666 19C 31.6666 25.9956 25.9956 31.6667 19 31.6667C 12.0044 31.6667 6.33331 25.9956 6.33331 19Z" transform="translate(199 6)" fill="#CB2026" fill-opacity="0.4"/>
</g>
<g id="_Path__22">
<path d="M 6.33333 12.6667C 9.83114 12.6667 12.6667 9.83114 12.6667 6.33333C 12.6667 2.83553 9.83114 0 6.33333 0C 2.83553 0 0 2.83553 0 6.33333C 0 9.83114 2.83553 12.6667 6.33333 12.6667Z" transform="translate(211.9 18.6666)" fill="#CB2026" fill-opacity="0.4"/>
</g>
</g>
<g id="Target Copy 34">
<g id="_Compound_Path__23">
<path fill-rule="evenodd" clip-rule="evenodd" d="M 0 19C 0 29.4934 8.50659 38 19 38C 29.4934 38 38 29.4934 38 19C 38 13.9609 35.9982 9.12817 32.4351 5.56494C 28.8718 2.00177 24.0391 0 19 0C 8.50659 0 0 8.50659 0 19ZM 6.33331 19C 6.33331 12.0044 12.0044 6.33331 19 6.33331C 25.9956 6.33331 31.6666 12.0044 31.6666 19C 31.6666 25.9956 25.9956 31.6666 19 31.6666C 12.0044 31.6666 6.33331 25.9956 6.33331 19Z" transform="translate(199 129)" fill="#CB2026" fill-opacity="0.4"/>
</g>
<g id="_Path__23">
<path d="M 6.33333 12.6667C 9.83114 12.6667 12.6667 9.83114 12.6667 6.33333C 12.6667 2.83553 9.83114 0 6.33333 0C 2.83553 0 0 2.83553 0 6.33333C 0 9.83114 2.83553 12.6667 6.33333 12.6667Z" transform="translate(211.9 141.667)" fill="#CB2026" fill-opacity="0.4"/>
</g>
</g>
<g id="Target Copy 61">
<g id="_Compound_Path__24">
<path fill-rule="evenodd" clip-rule="evenodd" d="M 0 19C 0 29.4934 8.50659 38 19 38C 29.4934 38 38 29.4934 38 19C 38 13.9609 35.9982 9.12817 32.4351 5.56494C 28.8718 2.00177 24.0391 0 19 0C 8.50659 0 0 8.50659 0 19ZM 6.33331 19C 6.33331 12.0044 12.0044 6.33331 19 6.33331C 25.9956 6.33331 31.6666 12.0044 31.6666 19C 31.6666 25.9956 25.9956 31.6666 19 31.6666C 12.0044 31.6666 6.33331 25.9956 6.33331 19Z" transform="translate(199 252)" fill="#CB2026" fill-opacity="0.4"/>
</g>
<g id="_Path__24">
<path d="M 6.33333 12.6667C 9.83114 12.6667 12.6667 9.83114 12.6667 6.33333C 12.6667 2.83553 9.83114 0 6.33333 0C 2.83553 0 0 2.83553 0 6.33333C 0 9.83114 2.83553 12.6667 6.33333 12.6667Z" transform="translate(211.9 264.667)" fill="#CB2026" fill-opacity="0.4"/>
</g>
</g>
<g id="Target Copy 88">
<g id="_Compound_Path__25">
<path fill-rule="evenodd" clip-rule="evenodd" d="M 0 19C 0 29.4934 8.50659 38 19 38C 29.4934 38 38 29.4934 38 19C 38 13.9609 35.9982 9.12817 32.4351 5.56494C 28.8718 2.00177 24.0391 0 19 0C 8.50659 0 0 8.50659 0 19ZM 6.33331 19C 6.33331 12.0044 12.0044 6.33331 19 6.33331C 25.9956 6.33331 31.6666 12.0044 31.6666 19C 31.6666 25.9956 25.9956 31.6666 19 31.6666C 12.0044 31.6666 6.33331 25.9956 6.33331 19Z" transform="translate(199 375)" fill="#CB2026" fill-opacity="0.4"/>
</g>
<g id="_Path__25">
<path d="M 6.33333 12.6667C 9.83114 12.6667 12.6667 9.83114 12.6667 6.33333C 12.6667 2.83553 9.83114 0 6.33333 0C 2.83553 0 0 2.83553 0 6.33333C 0 9.83114 2.83553 12.6667 6.33333 12.6667Z" transform="translate(211.9 387.667)" fill="#CB2026" fill-opacity="0.4"/>
</g>
</g>
<g id="Target Copy 17">
<g id="_Compound_Path__26">
<path fill-rule="evenodd" clip-rule="evenodd" d="M 0 19C 0 29.4934 8.50659 38 19 38C 29.4934 38 38 29.4934 38 19C 38 13.9609 35.9982 9.12817 32.4351 5.56494C 28.8718 2.00177 24.0391 0 19 0C 8.50659 0 0 8.50659 0 19ZM 6.33331 19C 6.33331 12.0044 12.0044 6.33331 19 6.33331C 25.9956 6.33331 31.6666 12.0044 31.6666 19C 31.6666 25.9956 25.9956 31.6666 19 31.6666C 12.0044 31.6666 6.33331 25.9956 6.33331 19Z" transform="translate(162 68)" fill="#CB2026" fill-opacity="0.4"/>
</g>
<g id="_Path__26">
<path d="M 6.33333 12.6667C 9.83114 12.6667 12.6667 9.83114 12.6667 6.33333C 12.6667 2.83553 9.83114 0 6.33333 0C 2.83553 0 0 2.83553 0 6.33333C 0 9.83114 2.83553 12.6667 6.33333 12.6667Z" transform="translate(174.9 80.6667)" fill="#CB2026" fill-opacity="0.4"/>
</g>
</g>
<g id="Target Copy 35">
<g id="_Compound_Path__27">
<path fill-rule="evenodd" clip-rule="evenodd" d="M 0 19C 0 29.4934 8.50659 38 19 38C 29.4934 38 38 29.4934 38 19C 38 13.9609 35.9982 9.12817 32.4351 5.56494C 28.8718 2.00177 24.0391 0 19 0C 8.50659 0 0 8.50659 0 19ZM 6.33331 19C 6.33331 12.0044 12.0044 6.33331 19 6.33331C 25.9956 6.33331 31.6666 12.0044 31.6666 19C 31.6666 25.9956 25.9956 31.6666 19 31.6666C 12.0044 31.6666 6.33331 25.9956 6.33331 19Z" transform="translate(162 191)" fill="#CB2026" fill-opacity="0.4"/>
</g>
<g id="_Path__27">
<path d="M 6.33333 12.6667C 9.83114 12.6667 12.6667 9.83114 12.6667 6.33333C 12.6667 2.83553 9.83114 0 6.33333 0C 2.83553 0 0 2.83553 0 6.33333C 0 9.83114 2.83553 12.6667 6.33333 12.6667Z" transform="translate(174.9 203.667)" fill="#CB2026" fill-opacity="0.4"/>
</g>
</g>
<g id="Target Copy 62">
<g id="_Compound_Path__28">
<path fill-rule="evenodd" clip-rule="evenodd" d="M 0 19C 0 29.4934 8.50659 38 19 38C 29.4934 38 38 29.4934 38 19C 38 13.9609 35.9982 9.12817 32.4351 5.56494C 28.8718 2.00177 24.0391 0 19 0C 8.50659 0 0 8.50659 0 19ZM 6.33331 19C 6.33331 12.0044 12.0044 6.33331 19 6.33331C 25.9956 6.33331 31.6666 12.0044 31.6666 19C 31.6666 25.9956 25.9956 31.6666 19 31.6666C 12.0044 31.6666 6.33331 25.9956 6.33331 19Z" transform="translate(162 314)" fill="#CB2026" fill-opacity="0.4"/>
</g>
<g id="_Path__28">
<path d="M 6.33333 12.6667C 9.83114 12.6667 12.6667 9.83114 12.6667 6.33333C 12.6667 2.83553 9.83114 0 6.33333 0C 2.83553 0 0 2.83553 0 6.33333C 0 9.83114 2.83553 12.6667 6.33333 12.6667Z" transform="translate(174.9 326.667)" fill="#CB2026" fill-opacity="0.4"/>
</g>
</g>
<g id="Target Copy 9">
<g id="_Compound_Path__29">
<path fill-rule="evenodd" clip-rule="evenodd" d="M 0 19C 0 29.4934 8.50659 38 19 38C 29.4934 38 38 29.4934 38 19C 38 13.9609 35.9982 9.12817 32.4351 5.56494C 28.8718 2.00183 24.0391 0 19 0C 8.50659 0 0 8.50659 0 19ZM 6.33337 19C 6.33337 12.0044 12.0044 6.33337 19 6.33337C 25.9956 6.33337 31.6667 12.0044 31.6667 19C 31.6667 25.9956 25.9956 31.6667 19 31.6667C 12.0044 31.6667 6.33337 25.9956 6.33337 19Z" transform="translate(668 6)" fill="#CB2026" fill-opacity="0.4"/>
</g>
<g id="_Path__29">
<path d="M 6.33333 12.6667C 9.83114 12.6667 12.6667 9.83114 12.6667 6.33333C 12.6667 2.83553 9.83114 0 6.33333 0C 2.83553 0 0 2.83553 0 6.33333C 0 9.83114 2.83553 12.6667 6.33333 12.6667Z" transform="translate(680.9 18.6666)" fill="#CB2026" fill-opacity="0.4"/>
</g>
</g>
<g id="Target Copy 36">
<g id="_Compound_Path__30">
<path fill-rule="evenodd" clip-rule="evenodd" d="M 0 19C 0 29.4934 8.50659 38 19 38C 29.4934 38 38 29.4934 38 19C 38 13.9609 35.9982 9.12817 32.4351 5.56494C 28.8718 2.00177 24.0391 0 19 0C 8.50659 0 0 8.50659 0 19ZM 6.33337 19C 6.33337 12.0044 12.0044 6.33331 19 6.33331C 25.9956 6.33331 31.6667 12.0044 31.6667 19C 31.6667 25.9956 25.9956 31.6666 19 31.6666C 12.0044 31.6666 6.33337 25.9956 6.33337 19Z" transform="translate(668 129)" fill="#CB2026" fill-opacity="0.4"/>
</g>
<g id="_Path__30">
<path d="M 6.33333 12.6667C 9.83114 12.6667 12.6667 9.83114 12.6667 6.33333C 12.6667 2.83553 9.83114 0 6.33333 0C 2.83553 0 0 2.83553 0 6.33333C 0 9.83114 2.83553 12.6667 6.33333 12.6667Z" transform="translate(680.9 141.667)" fill="#CB2026" fill-opacity="0.4"/>
</g>
</g>
<g id="Target Copy 63">
<g id="_Compound_Path__31">
<path fill-rule="evenodd" clip-rule="evenodd" d="M 0 19C 0 29.4934 8.50659 38 19 38C 29.4934 38 38 29.4934 38 19C 38 13.9609 35.9982 9.12817 32.4351 5.56494C 28.8718 2.00177 24.0391 0 19 0C 8.50659 0 0 8.50659 0 19ZM 6.33337 19C 6.33337 12.0044 12.0044 6.33331 19 6.33331C 25.9956 6.33331 31.6667 12.0044 31.6667 19C 31.6667 25.9956 25.9956 31.6666 19 31.6666C 12.0044 31.6666 6.33337 25.9956 6.33337 19Z" transform="translate(668 252)" fill="#CB2026" fill-opacity="0.4"/>
</g>
<g id="_Path__31">
<path d="M 6.33333 12.6667C 9.83114 12.6667 12.6667 9.83114 12.6667 6.33333C 12.6667 2.83553 9.83114 0 6.33333 0C 2.83553 0 0 2.83553 0 6.33333C 0 9.83114 2.83553 12.6667 6.33333 12.6667Z" transform="translate(680.9 264.667)" fill="#CB2026" fill-opacity="0.4"/>
</g>
</g>
<g id="Target Copy 90">
<g id="_Compound_Path__32">
<path fill-rule="evenodd" clip-rule="evenodd" d="M 0 19C 0 29.4934 8.50659 38 19 38C 29.4934 38 38 29.4934 38 19C 38 13.9609 35.9982 9.12817 32.4351 5.56494C 28.8718 2.00177 24.0391 0 19 0C 8.50659 0 0 8.50659 0 19ZM 6.33337 19C 6.33337 12.0044 12.0044 6.33331 19 6.33331C 25.9956 6.33331 31.6667 12.0044 31.6667 19C 31.6667 25.9956 25.9956 31.6666 19 31.6666C 12.0044 31.6666 6.33337 25.9956 6.33337 19Z" transform="translate(668 375)" fill="#CB2026" fill-opacity="0.4"/>
</g>
<g id="_Path__32">
<path d="M 6.33333 12.6667C 9.83114 12.6667 12.6667 9.83114 12.6667 6.33333C 12.6667 2.83553 9.83114 0 6.33333 0C 2.83553 0 0 2.83553 0 6.33333C 0 9.83114 2.83553 12.6667 6.33333 12.6667Z" transform="translate(680.9 387.667)" fill="#CB2026" fill-opacity="0.4"/>
</g>
</g>
<g id="Target Copy 18">
<g id="_Compound_Path__33">
<path fill-rule="evenodd" clip-rule="evenodd" d="M 0 19C 0 29.4934 8.50659 38 19 38C 29.4934 38 38 29.4934 38 19C 38 13.9609 35.9982 9.12817 32.4351 5.56494C 28.8718 2.00177 24.0391 0 19 0C 8.50659 0 0 8.50659 0 19ZM 6.33337 19C 6.33337 12.0044 12.0044 6.33331 19 6.33331C 25.9956 6.33331 31.6667 12.0044 31.6667 19C 31.6667 25.9956 25.9956 31.6666 19 31.6666C 12.0044 31.6666 6.33337 25.9956 6.33337 19Z" transform="translate(631 68)" fill="#CB2026" fill-opacity="0.4"/>
</g>
<g id="_Path__33">
<path d="M 6.33333 12.6667C 9.83114 12.6667 12.6667 9.83114 12.6667 6.33333C 12.6667 2.83553 9.83114 0 6.33333 0C 2.83553 0 0 2.83553 0 6.33333C 0 9.83114 2.83553 12.6667 6.33333 12.6667Z" transform="translate(643.9 80.6667)" fill="#CB2026" fill-opacity="0.4"/>
</g>
</g>
<g id="Target Copy 37">
<g id="_Compound_Path__34">
<path fill-rule="evenodd" clip-rule="evenodd" d="M 0 19C 0 29.4934 8.50659 38 19 38C 29.4934 38 38 29.4934 38 19C 38 13.9609 35.9982 9.12817 32.4351 5.56494C 28.8718 2.00177 24.0391 0 19 0C 8.50659 0 0 8.50659 0 19ZM 6.33337 19C 6.33337 12.0044 12.0044 6.33331 19 6.33331C 25.9956 6.33331 31.6667 12.0044 31.6667 19C 31.6667 25.9956 25.9956 31.6666 19 31.6666C 12.0044 31.6666 6.33337 25.9956 6.33337 19Z" transform="translate(631 191)" fill="#CB2026" fill-opacity="0.4"/>
</g>
<g id="_Path__34">
<path d="M 6.33333 12.6667C 9.83114 12.6667 12.6667 9.83114 12.6667 6.33333C 12.6667 2.83553 9.83114 0 6.33333 0C 2.83553 0 0 2.83553 0 6.33333C 0 9.83114 2.83553 12.6667 6.33333 12.6667Z" transform="translate(643.9 203.667)" fill="#CB2026" fill-opacity="0.4"/>
</g>
</g>
<g id="Target Copy 64">
<g id="_Compound_Path__35">
<path fill-rule="evenodd" clip-rule="evenodd" d="M 0 19C 0 29.4934 8.50659 38 19 38C 29.4934 38 38 29.4934 38 19C 38 13.9609 35.9982 9.12817 32.4351 5.56494C 28.8718 2.00177 24.0391 0 19 0C 8.50659 0 0 8.50659 0 19ZM 6.33337 19C 6.33337 12.0044 12.0044 6.33331 19 6.33331C 25.9956 6.33331 31.6667 12.0044 31.6667 19C 31.6667 25.9956 25.9956 31.6666 19 31.6666C 12.0044 31.6666 6.33337 25.9956 6.33337 19Z" transform="translate(631 314)" fill="#CB2026" fill-opacity="0.4"/>
</g>
<g id="_Path__35">
<path d="M 6.33333 12.6667C 9.83114 12.6667 12.6667 9.83114 12.6667 6.33333C 12.6667 2.83553 9.83114 0 6.33333 0C 2.83553 0 0 2.83553 0 6.33333C 0 9.83114 2.83553 12.6667 6.33333 12.6667Z" transform="translate(643.9 326.667)" fill="#CB2026" fill-opacity="0.4"/>
</g>
</g>
<g id="Target Copy 5">
<g id="_Compound_Path__36">
<path fill-rule="evenodd" clip-rule="evenodd" d="M 0 19C 0 29.4934 8.50659 38 19 38C 29.4934 38 38 29.4934 38 19C 38 13.9609 35.9982 9.12817 32.4351 5.56494C 28.8718 2.00183 24.0391 0 19 0C 8.50659 0 0 8.50659 0 19ZM 6.33331 19C 6.33331 12.0044 12.0044 6.33337 19 6.33337C 25.9956 6.33337 31.6666 12.0044 31.6666 19C 31.6666 25.9956 25.9956 31.6667 19 31.6667C 12.0044 31.6667 6.33331 25.9956 6.33331 19Z" transform="translate(513 6)" fill="#CB2026" fill-opacity="0.4"/>
</g>
<g id="_Path__36">
<path d="M 6.33333 12.6667C 9.83114 12.6667 12.6667 9.83114 12.6667 6.33333C 12.6667 2.83553 9.83114 0 6.33333 0C 2.83553 0 0 2.83553 0 6.33333C 0 9.83114 2.83553 12.6667 6.33333 12.6667Z" transform="translate(525.9 18.6666)" fill="#CB2026" fill-opacity="0.4"/>
</g>
</g>
<g id="Target Copy 38">
<g id="_Compound_Path__37">
<path fill-rule="evenodd" clip-rule="evenodd" d="M 0 19C 0 29.4934 8.50659 38 19 38C 29.4934 38 38 29.4934 38 19C 38 13.9609 35.9982 9.12817 32.4351 5.56494C 28.8718 2.00177 24.0391 0 19 0C 8.50659 0 0 8.50659 0 19ZM 6.33331 19C 6.33331 12.0044 12.0044 6.33331 19 6.33331C 25.9956 6.33331 31.6666 12.0044 31.6666 19C 31.6666 25.9956 25.9956 31.6666 19 31.6666C 12.0044 31.6666 6.33331 25.9956 6.33331 19Z" transform="translate(513 129)" fill="#CB2026" fill-opacity="0.4"/>
</g>
<g id="_Path__37">
<path d="M 6.33333 12.6667C 9.83114 12.6667 12.6667 9.83114 12.6667 6.33333C 12.6667 2.83553 9.83114 0 6.33333 0C 2.83553 0 0 2.83553 0 6.33333C 0 9.83114 2.83553 12.6667 6.33333 12.6667Z" transform="translate(525.9 141.667)" fill="#CB2026" fill-opacity="0.4"/>
</g>
</g>
<g id="Target Copy 65">
<g id="_Compound_Path__38">
<path fill-rule="evenodd" clip-rule="evenodd" d="M 0 19C 0 29.4934 8.50659 38 19 38C 29.4934 38 38 29.4934 38 19C 38 13.9609 35.9982 9.12817 32.4351 5.56494C 28.8718 2.00177 24.0391 0 19 0C 8.50659 0 0 8.50659 0 19ZM 6.33331 19C 6.33331 12.0044 12.0044 6.33331 19 6.33331C 25.9956 6.33331 31.6666 12.0044 31.6666 19C 31.6666 25.9956 25.9956 31.6666 19 31.6666C 12.0044 31.6666 6.33331 25.9956 6.33331 19Z" transform="translate(513 252)" fill="#CB2026" fill-opacity="0.4"/>
</g>
<g id="_Path__38">
<path d="M 6.33333 12.6667C 9.83114 12.6667 12.6667 9.83114 12.6667 6.33333C 12.6667 2.83553 9.83114 0 6.33333 0C 2.83553 0 0 2.83553 0 6.33333C 0 9.83114 2.83553 12.6667 6.33333 12.6667Z" transform="translate(525.9 264.667)" fill="#CB2026" fill-opacity="0.4"/>
</g>
</g>
<g id="Target Copy 92">
<g id="_Compound_Path__39">
<path fill-rule="evenodd" clip-rule="evenodd" d="M 0 19C 0 29.4934 8.50659 38 19 38C 29.4934 38 38 29.4934 38 19C 38 13.9609 35.9982 9.12817 32.4351 5.56494C 28.8718 2.00177 24.0391 0 19 0C 8.50659 0 0 8.50659 0 19ZM 6.33331 19C 6.33331 12.0044 12.0044 6.33331 19 6.33331C 25.9956 6.33331 31.6666 12.0044 31.6666 19C 31.6666 25.9956 25.9956 31.6666 19 31.6666C 12.0044 31.6666 6.33331 25.9956 6.33331 19Z" transform="translate(513 375)" fill="#CB2026" fill-opacity="0.4"/>
</g>
<g id="_Path__39">
<path d="M 6.33333 12.6667C 9.83114 12.6667 12.6667 9.83114 12.6667 6.33333C 12.6667 2.83553 9.83114 0 6.33333 0C 2.83553 0 0 2.83553 0 6.33333C 0 9.83114 2.83553 12.6667 6.33333 12.6667Z" transform="translate(525.9 387.667)" fill="#CB2026" fill-opacity="0.4"/>
</g>
</g>
<g id="Target Copy 19">
<g id="_Compound_Path__40">
<path fill-rule="evenodd" clip-rule="evenodd" d="M 0 19C 0 29.4934 8.50659 38 19 38C 29.4934 38 38 29.4934 38 19C 38 13.9609 35.9982 9.12817 32.4351 5.56494C 28.8718 2.00177 24.0391 0 19 0C 8.50659 0 0 8.50659 0 19ZM 6.33331 19C 6.33331 12.0044 12.0044 6.33331 19 6.33331C 25.9956 6.33331 31.6666 12.0044 31.6666 19C 31.6666 25.9956 25.9956 31.6666 19 31.6666C 12.0044 31.6666 6.33331 25.9956 6.33331 19Z" transform="translate(475 68)" fill="#CB2026" fill-opacity="0.4"/>
</g>
<g id="_Path__40">
<path d="M 6.33333 12.6667C 9.83114 12.6667 12.6667 9.83114 12.6667 6.33333C 12.6667 2.83553 9.83114 0 6.33333 0C 2.83553 0 0 2.83553 0 6.33333C 0 9.83114 2.83553 12.6667 6.33333 12.6667Z" transform="translate(487.9 80.6667)" fill="#CB2026" fill-opacity="0.4"/>
</g>
</g>
<g id="Target Copy 39">
<g id="_Compound_Path__41">
<path fill-rule="evenodd" clip-rule="evenodd" d="M 0 19C 0 29.4934 8.50659 38 19 38C 29.4934 38 38 29.4934 38 19C 38 13.9609 35.9982 9.12817 32.4351 5.56494C 28.8718 2.00177 24.0391 0 19 0C 8.50659 0 0 8.50659 0 19ZM 6.33331 19C 6.33331 12.0044 12.0044 6.33331 19 6.33331C 25.9956 6.33331 31.6666 12.0044 31.6666 19C 31.6666 25.9956 25.9956 31.6666 19 31.6666C 12.0044 31.6666 6.33331 25.9956 6.33331 19Z" transform="translate(475 191)" fill="#CB2026" fill-opacity="0.4"/>
</g>
<g id="_Path__41">
<path d="M 6.33333 12.6667C 9.83114 12.6667 12.6667 9.83114 12.6667 6.33333C 12.6667 2.83553 9.83114 0 6.33333 0C 2.83553 0 0 2.83553 0 6.33333C 0 9.83114 2.83553 12.6667 6.33333 12.6667Z" transform="translate(487.9 203.667)" fill="#CB2026" fill-opacity="0.4"/>
</g>
</g>
<g id="Target Copy 66">
<g id="_Compound_Path__42">
<path fill-rule="evenodd" clip-rule="evenodd" d="M 0 19C 0 29.4934 8.50659 38 19 38C 29.4934 38 38 29.4934 38 19C 38 13.9609 35.9982 9.12817 32.4351 5.56494C 28.8718 2.00177 24.0391 0 19 0C 8.50659 0 0 8.50659 0 19ZM 6.33331 19C 6.33331 12.0044 12.0044 6.33331 19 6.33331C 25.9956 6.33331 31.6666 12.0044 31.6666 19C 31.6666 25.9956 25.9956 31.6666 19 31.6666C 12.0044 31.6666 6.33331 25.9956 6.33331 19Z" transform="translate(475 314)" fill="#CB2026" fill-opacity="0.4"/>
</g>
<g id="_Path__42">
<path d="M 6.33333 12.6667C 9.83114 12.6667 12.6667 9.83114 12.6667 6.33333C 12.6667 2.83553 9.83114 0 6.33333 0C 2.83553 0 0 2.83553 0 6.33333C 0 9.83114 2.83553 12.6667 6.33333 12.6667Z" transform="translate(487.9 326.667)" fill="#CB2026" fill-opacity="0.4"/>
</g>
</g>
<g id="Target Copy 10">
<g id="_Compound_Path__43">
<path fill-rule="evenodd" clip-rule="evenodd" d="M 0 19C 0 29.4934 8.50659 38 19 38C 29.4934 38 38 29.4934 38 19C 38 13.9609 35.9982 9.12817 32.4351 5.56494C 28.8718 2.00183 24.0391 0 19 0C 8.50659 0 0 8.50659 0 19ZM 6.33337 19C 6.33337 12.0044 12.0044 6.33337 19 6.33337C 25.9956 6.33337 31.6667 12.0044 31.6667 19C 31.6667 25.9956 25.9956 31.6667 19 31.6667C 12.0044 31.6667 6.33337 25.9956 6.33337 19Z" transform="translate(982 6)" fill="#CB2026" fill-opacity="0.4"/>
</g>
<g id="_Path__43">
<path d="M 6.33333 12.6667C 9.83114 12.6667 12.6667 9.83114 12.6667 6.33333C 12.6667 2.83553 9.83114 0 6.33333 0C 2.83553 0 0 2.83553 0 6.33333C 0 9.83114 2.83553 12.6667 6.33333 12.6667Z" transform="translate(994.9 18.6666)" fill="#CB2026" fill-opacity="0.4"/>
</g>
</g>
<g id="Target Copy 40">
<g id="_Compound_Path__44">
<path fill-rule="evenodd" clip-rule="evenodd" d="M 0 19C 0 29.4934 8.50659 38 19 38C 29.4934 38 38 29.4934 38 19C 38 13.9609 35.9982 9.12817 32.4351 5.56494C 28.8718 2.00177 24.0391 0 19 0C 8.50659 0 0 8.50659 0 19ZM 6.33337 19C 6.33337 12.0044 12.0044 6.33331 19 6.33331C 25.9956 6.33331 31.6667 12.0044 31.6667 19C 31.6667 25.9956 25.9956 31.6666 19 31.6666C 12.0044 31.6666 6.33337 25.9956 6.33337 19Z" transform="translate(982 129)" fill="#CB2026" fill-opacity="0.4"/>
</g>
<g id="_Path__44">
<path d="M 6.33333 12.6667C 9.83114 12.6667 12.6667 9.83114 12.6667 6.33333C 12.6667 2.83553 9.83114 0 6.33333 0C 2.83553 0 0 2.83553 0 6.33333C 0 9.83114 2.83553 12.6667 6.33333 12.6667Z" transform="translate(994.9 141.667)" fill="#CB2026" fill-opacity="0.4"/>
</g>
</g>
<g id="Target Copy 67">
<g id="_Compound_Path__45">
<path fill-rule="evenodd" clip-rule="evenodd" d="M 0 19C 0 29.4934 8.50659 38 19 38C 29.4934 38 38 29.4934 38 19C 38 13.9609 35.9982 9.12817 32.4351 5.56494C 28.8718 2.00177 24.0391 0 19 0C 8.50659 0 0 8.50659 0 19ZM 6.33337 19C 6.33337 12.0044 12.0044 6.33331 19 6.33331C 25.9956 6.33331 31.6667 12.0044 31.6667 19C 31.6667 25.9956 25.9956 31.6666 19 31.6666C 12.0044 31.6666 6.33337 25.9956 6.33337 19Z" transform="translate(982 252)" fill="#CB2026" fill-opacity="0.4"/>
</g>
<g id="_Path__45">
<path d="M 6.33333 12.6667C 9.83114 12.6667 12.6667 9.83114 12.6667 6.33333C 12.6667 2.83553 9.83114 0 6.33333 0C 2.83553 0 0 2.83553 0 6.33333C 0 9.83114 2.83553 12.6667 6.33333 12.6667Z" transform="translate(994.9 264.667)" fill="#CB2026" fill-opacity="0.4"/>
</g>
</g>
<g id="Target Copy 109">
<g id="_Compound_Path__46">
<path fill-rule="evenodd" clip-rule="evenodd" d="M 0 19C 0 29.4934 8.50659 38 19 38C 29.4934 38 38 29.4934 38 19C 38 13.9609 35.9982 9.12817 32.4351 5.56494C 28.8718 2.00177 24.0391 0 19 0C 8.50659 0 0 8.50659 0 19ZM 6.33337 19C 6.33337 12.0044 12.0044 6.33331 19 6.33331C 25.9956 6.33331 31.6667 12.0044 31.6667 19C 31.6667 25.9956 25.9956 31.6666 19 31.6666C 12.0044 31.6666 6.33337 25.9956 6.33337 19Z" transform="translate(1061 252)" fill="#CB2026" fill-opacity="0.4"/>
</g>
<g id="_Path__46">
<path d="M 6.33333 12.6667C 9.83114 12.6667 12.6667 9.83114 12.6667 6.33333C 12.6667 2.83553 9.83114 0 6.33333 0C 2.83553 0 0 2.83553 0 6.33333C 0 9.83114 2.83553 12.6667 6.33333 12.6667Z" transform="translate(1073.9 264.667)" fill="#CB2026" fill-opacity="0.4"/>
</g>
</g>
<g id="Target Copy 111">
<g id="_Compound_Path__47">
<path fill-rule="evenodd" clip-rule="evenodd" d="M 0 19C 0 29.4934 8.50659 38 19 38C 29.4934 38 38 29.4934 38 19C 38 13.9609 35.9982 9.12817 32.4351 5.56494C 28.8718 2.00177 24.0391 0 19 0C 8.50659 0 0 8.50659 0 19ZM 6.33337 19C 6.33337 12.0044 12.0044 6.33331 19 6.33331C 25.9956 6.33331 31.6667 12.0044 31.6667 19C 31.6667 25.9956 25.9956 31.6666 19 31.6666C 12.0044 31.6666 6.33337 25.9956 6.33337 19Z" transform="translate(1061 129)" fill="#CB2026" fill-opacity="0.4"/>
</g>
<g id="_Path__47">
<path d="M 6.33333 12.6667C 9.83114 12.6667 12.6667 9.83114 12.6667 6.33333C 12.6667 2.83553 9.83114 0 6.33333 0C 2.83553 0 0 2.83553 0 6.33333C 0 9.83114 2.83553 12.6667 6.33333 12.6667Z" transform="translate(1073.9 141.667)" fill="#CB2026" fill-opacity="0.4"/>
</g>
</g>
<g id="Target Copy 110">
<g id="_Compound_Path__48">
<path fill-rule="evenodd" clip-rule="evenodd" d="M 0 19C 0 29.4934 8.50659 38 19 38C 29.4934 38 38 29.4934 38 19C 38 13.9609 35.9982 9.12817 32.4351 5.56494C 28.8718 2.00177 24.0391 0 19 0C 8.50659 0 0 8.50659 0 19ZM 6.33337 19C 6.33337 12.0044 12.0044 6.33331 19 6.33331C 25.9956 6.33331 31.6667 12.0044 31.6667 19C 31.6667 25.9956 25.9956 31.6666 19 31.6666C 12.0044 31.6666 6.33337 25.9956 6.33337 19Z" transform="translate(1061 375)" fill="#CB2026" fill-opacity="0.4"/>
</g>
<g id="_Path__48">
<path d="M 6.33333 12.6667C 9.83114 12.6667 12.6667 9.83114 12.6667 6.33333C 12.6667 2.83553 9.83114 0 6.33333 0C 2.83553 0 0 2.83553 0 6.33333C 0 9.83114 2.83553 12.6667 6.33333 12.6667Z" transform="translate(1073.9 387.667)" fill="#CB2026" fill-opacity="0.4"/>
</g>
</g>
<g id="Target Copy 94">
<g id="_Compound_Path__49">
<path fill-rule="evenodd" clip-rule="evenodd" d="M 0 19C 0 29.4934 8.50659 38 19 38C 29.4934 38 38 29.4934 38 19C 38 13.9609 35.9982 9.12817 32.4351 5.56494C 28.8718 2.00177 24.0391 0 19 0C 8.50659 0 0 8.50659 0 19ZM 6.33337 19C 6.33337 12.0044 12.0044 6.33331 19 6.33331C 25.9956 6.33331 31.6667 12.0044 31.6667 19C 31.6667 25.9956 25.9956 31.6666 19 31.6666C 12.0044 31.6666 6.33337 25.9956 6.33337 19Z" transform="translate(982 375)" fill="#CB2026" fill-opacity="0.4"/>
</g>
<g id="_Path__49">
<path d="M 6.33333 12.6667C 9.83114 12.6667 12.6667 9.83114 12.6667 6.33333C 12.6667 2.83553 9.83114 0 6.33333 0C 2.83553 0 0 2.83553 0 6.33333C 0 9.83114 2.83553 12.6667 6.33333 12.6667Z" transform="translate(994.9 387.667)" fill="#CB2026" fill-opacity="0.4"/>
</g>
</g>
<g id="Target Copy 20">
<g id="_Compound_Path__50">
<path fill-rule="evenodd" clip-rule="evenodd" d="M 0 19C 0 29.4934 8.50659 38 19 38C 29.4934 38 38 29.4934 38 19C 38 13.9609 35.9982 9.12817 32.4351 5.56494C 28.8718 2.00177 24.0391 0 19 0C 8.50659 0 0 8.50659 0 19ZM 6.33337 19C 6.33337 12.0044 12.0044 6.33331 19 6.33331C 25.9956 6.33331 31.6667 12.0044 31.6667 19C 31.6667 25.9956 25.9956 31.6666 19 31.6666C 12.0044 31.6666 6.33337 25.9956 6.33337 19Z" transform="translate(944 68)" fill="#CB2026" fill-opacity="0.4"/>
</g>
<g id="_Path__50">
<path d="M 6.33333 12.6667C 9.83114 12.6667 12.6667 9.83114 12.6667 6.33333C 12.6667 2.83553 9.83114 0 6.33333 0C 2.83553 0 0 2.83553 0 6.33333C 0 9.83114 2.83553 12.6667 6.33333 12.6667Z" transform="translate(956.9 80.6667)" fill="#CB2026" fill-opacity="0.4"/>
</g>
</g>
<g id="Target Copy 41">
<g id="_Compound_Path__51">
<path fill-rule="evenodd" clip-rule="evenodd" d="M 0 19C 0 29.4934 8.50659 38 19 38C 29.4934 38 38 29.4934 38 19C 38 13.9609 35.9982 9.12817 32.4351 5.56494C 28.8718 2.00177 24.0391 0 19 0C 8.50659 0 0 8.50659 0 19ZM 6.33337 19C 6.33337 12.0044 12.0044 6.33331 19 6.33331C 25.9956 6.33331 31.6667 12.0044 31.6667 19C 31.6667 25.9956 25.9956 31.6666 19 31.6666C 12.0044 31.6666 6.33337 25.9956 6.33337 19Z" transform="translate(944 191)" fill="#CB2026" fill-opacity="0.4"/>
</g>
<g id="_Path__51">
<path d="M 6.33333 12.6667C 9.83114 12.6667 12.6667 9.83114 12.6667 6.33333C 12.6667 2.83553 9.83114 0 6.33333 0C 2.83553 0 0 2.83553 0 6.33333C 0 9.83114 2.83553 12.6667 6.33333 12.6667Z" transform="translate(956.9 203.667)" fill="#CB2026" fill-opacity="0.4"/>
</g>
</g>
<g id="Target Copy 68">
<g id="_Compound_Path__52">
<path fill-rule="evenodd" clip-rule="evenodd" d="M 0 19C 0 29.4934 8.50659 38 19 38C 29.4934 38 38 29.4934 38 19C 38 13.9609 35.9982 9.12817 32.4351 5.56494C 28.8718 2.00177 24.0391 0 19 0C 8.50659 0 0 8.50659 0 19ZM 6.33337 19C 6.33337 12.0044 12.0044 6.33331 19 6.33331C 25.9956 6.33331 31.6667 12.0044 31.6667 19C 31.6667 25.9956 25.9956 31.6666 19 31.6666C 12.0044 31.6666 6.33337 25.9956 6.33337 19Z" transform="translate(944 314)" fill="#CB2026" fill-opacity="0.4"/>
</g>
<g id="_Path__52">
<path d="M 6.33333 12.6667C 9.83114 12.6667 12.6667 9.83114 12.6667 6.33333C 12.6667 2.83553 9.83114 0 6.33333 0C 2.83553 0 0 2.83553 0 6.33333C 0 9.83114 2.83553 12.6667 6.33333 12.6667Z" transform="translate(956.9 326.667)" fill="#CB2026" fill-opacity="0.4"/>
</g>
</g>
<g id="Target Copy">
<g id="_Compound_Path__53">
<path fill-rule="evenodd" clip-rule="evenodd" d="M 0 19C 0 29.4934 8.50659 38 19 38C 29.4934 38 38 29.4934 38 19C 38 13.9609 35.9982 9.12817 32.4351 5.56494C 28.8718 2.00183 24.0391 0 19 0C 8.50659 0 0 8.50659 0 19ZM 6.33331 19C 6.33331 12.0044 12.0044 6.33337 19 6.33337C 25.9956 6.33337 31.6666 12.0044 31.6666 19C 31.6666 25.9956 25.9956 31.6667 19 31.6667C 12.0044 31.6667 6.33331 25.9956 6.33331 19Z" transform="translate(120 6)" fill="#CB2026" fill-opacity="0.4"/>
</g>
<g id="_Path__53">
<path d="M 6.33333 12.6667C 9.83114 12.6667 12.6667 9.83114 12.6667 6.33333C 12.6667 2.83553 9.83114 0 6.33333 0C 2.83553 0 0 2.83553 0 6.33333C 0 9.83114 2.83553 12.6667 6.33333 12.6667Z" transform="translate(132.9 18.6666)" fill="#CB2026" fill-opacity="0.4"/>
</g>
</g>
<g id="Target Copy 42">
<g id="_Compound_Path__54">
<path fill-rule="evenodd" clip-rule="evenodd" d="M 0 19C 0 29.4934 8.50659 38 19 38C 29.4934 38 38 29.4934 38 19C 38 13.9609 35.9982 9.12817 32.4351 5.56494C 28.8718 2.00177 24.0391 0 19 0C 8.50659 0 0 8.50659 0 19ZM 6.33331 19C 6.33331 12.0044 12.0044 6.33331 19 6.33331C 25.9956 6.33331 31.6666 12.0044 31.6666 19C 31.6666 25.9956 25.9956 31.6666 19 31.6666C 12.0044 31.6666 6.33331 25.9956 6.33331 19Z" transform="translate(120 129)" fill="#CB2026" fill-opacity="0.4"/>
</g>
<g id="_Path__54">
<path d="M 6.33333 12.6667C 9.83114 12.6667 12.6667 9.83114 12.6667 6.33333C 12.6667 2.83553 9.83114 0 6.33333 0C 2.83553 0 0 2.83553 0 6.33333C 0 9.83114 2.83553 12.6667 6.33333 12.6667Z" transform="translate(132.9 141.667)" fill="#CB2026" fill-opacity="0.4"/>
</g>
</g>
<g id="Target Copy 69">
<g id="_Compound_Path__55">
<path fill-rule="evenodd" clip-rule="evenodd" d="M 0 19C 0 29.4934 8.50659 38 19 38C 29.4934 38 38 29.4934 38 19C 38 13.9609 35.9982 9.12817 32.4351 5.56494C 28.8718 2.00177 24.0391 0 19 0C 8.50659 0 0 8.50659 0 19ZM 6.33331 19C 6.33331 12.0044 12.0044 6.33331 19 6.33331C 25.9956 6.33331 31.6666 12.0044 31.6666 19C 31.6666 25.9956 25.9956 31.6666 19 31.6666C 12.0044 31.6666 6.33331 25.9956 6.33331 19Z" transform="translate(120 252)" fill="#CB2026" fill-opacity="0.4"/>
</g>
<g id="_Path__55">
<path d="M 6.33333 12.6667C 9.83114 12.6667 12.6667 9.83114 12.6667 6.33333C 12.6667 2.83553 9.83114 0 6.33333 0C 2.83553 0 0 2.83553 0 6.33333C 0 9.83114 2.83553 12.6667 6.33333 12.6667Z" transform="translate(132.9 264.667)" fill="#CB2026" fill-opacity="0.4"/>
</g>
</g>
<g id="Target Copy 96">
<g id="_Compound_Path__56">
<path fill-rule="evenodd" clip-rule="evenodd" d="M 0 19C 0 29.4934 8.50659 38 19 38C 29.4934 38 38 29.4934 38 19C 38 13.9609 35.9982 9.12817 32.4351 5.56494C 28.8718 2.00177 24.0391 0 19 0C 8.50659 0 0 8.50659 0 19ZM 6.33331 19C 6.33331 12.0044 12.0044 6.33331 19 6.33331C 25.9956 6.33331 31.6666 12.0044 31.6666 19C 31.6666 25.9956 25.9956 31.6666 19 31.6666C 12.0044 31.6666 6.33331 25.9956 6.33331 19Z" transform="translate(120 375)" fill="#CB2026" fill-opacity="0.4"/>
</g>
<g id="_Path__56">
<path d="M 6.33333 12.6667C 9.83114 12.6667 12.6667 9.83114 12.6667 6.33333C 12.6667 2.83553 9.83114 0 6.33333 0C 2.83553 0 0 2.83553 0 6.33333C 0 9.83114 2.83553 12.6667 6.33333 12.6667Z" transform="translate(132.9 387.667)" fill="#CB2026" fill-opacity="0.4"/>
</g>
</g>
<g id="Target Copy 21">
<g id="_Compound_Path__57">
<path fill-rule="evenodd" clip-rule="evenodd" d="M 0 19C 0 29.4934 8.50659 38 19 38C 29.4934 38 38 29.4934 38 19C 38 13.9609 35.9982 9.12817 32.4351 5.56494C 28.8718 2.00177 24.0391 0 19 0C 8.50659 0 0 8.50659 0 19ZM 6.33331 19C 6.33331 12.0044 12.0044 6.33331 19 6.33331C 25.9956 6.33331 31.6666 12.0044 31.6666 19C 31.6666 25.9956 25.9956 31.6666 19 31.6666C 12.0044 31.6666 6.33331 25.9956 6.33331 19Z" transform="translate(83 68)" fill="#CB2026" fill-opacity="0.4"/>
</g>
<g id="_Path__57">
<path d="M 6.33333 12.6667C 9.83114 12.6667 12.6667 9.83114 12.6667 6.33333C 12.6667 2.83553 9.83114 0 6.33333 0C 2.83553 0 0 2.83553 0 6.33333C 0 9.83114 2.83553 12.6667 6.33333 12.6667Z" transform="translate(95.8998 80.6667)" fill="#CB2026" fill-opacity="0.4"/>
</g>
</g>
<g id="Target Copy 43">
<g id="_Compound_Path__58">
<path fill-rule="evenodd" clip-rule="evenodd" d="M 0 19C 0 29.4934 8.50659 38 19 38C 29.4934 38 38 29.4934 38 19C 38 13.9609 35.9982 9.12817 32.4351 5.56494C 28.8718 2.00177 24.0391 0 19 0C 8.50659 0 0 8.50659 0 19ZM 6.33331 19C 6.33331 12.0044 12.0044 6.33331 19 6.33331C 25.9956 6.33331 31.6666 12.0044 31.6666 19C 31.6666 25.9956 25.9956 31.6666 19 31.6666C 12.0044 31.6666 6.33331 25.9956 6.33331 19Z" transform="translate(83 191)" fill="#CB2026" fill-opacity="0.4"/>
</g>
<g id="_Path__58">
<path d="M 6.33333 12.6667C 9.83114 12.6667 12.6667 9.83114 12.6667 6.33333C 12.6667 2.83553 9.83114 0 6.33333 0C 2.83553 0 0 2.83553 0 6.33333C 0 9.83114 2.83553 12.6667 6.33333 12.6667Z" transform="translate(95.8998 203.667)" fill="#CB2026" fill-opacity="0.4"/>
</g>
</g>
<g id="Target Copy 70">
<g id="_Compound_Path__59">
<path fill-rule="evenodd" clip-rule="evenodd" d="M 0 19C 0 29.4934 8.50659 38 19 38C 29.4934 38 38 29.4934 38 19C 38 13.9609 35.9982 9.12817 32.4351 5.56494C 28.8718 2.00177 24.0391 0 19 0C 8.50659 0 0 8.50659 0 19ZM 6.33331 19C 6.33331 12.0044 12.0044 6.33331 19 6.33331C 25.9956 6.33331 31.6666 12.0044 31.6666 19C 31.6666 25.9956 25.9956 31.6666 19 31.6666C 12.0044 31.6666 6.33331 25.9956 6.33331 19Z" transform="translate(83 314)" fill="#CB2026" fill-opacity="0.4"/>
</g>
<g id="_Path__59">
<path d="M 6.33333 12.6667C 9.83114 12.6667 12.6667 9.83114 12.6667 6.33333C 12.6667 2.83553 9.83114 0 6.33333 0C 2.83553 0 0 2.83553 0 6.33333C 0 9.83114 2.83553 12.6667 6.33333 12.6667Z" transform="translate(95.8998 326.667)" fill="#CB2026" fill-opacity="0.4"/>
</g>
</g>
<g id="Target Copy 6">
<g id="_Compound_Path__60">
<path fill-rule="evenodd" clip-rule="evenodd" d="M 0 19C 0 29.4934 8.50659 38 19 38C 29.4934 38 38 29.4934 38 19C 38 13.9609 35.9982 9.12817 32.4351 5.56494C 28.8718 2.00183 24.0391 0 19 0C 8.50659 0 0 8.50659 0 19ZM 6.33331 19C 6.33331 12.0044 12.0044 6.33337 19 6.33337C 25.9956 6.33337 31.6666 12.0044 31.6666 19C 31.6666 25.9956 25.9956 31.6667 19 31.6667C 12.0044 31.6667 6.33331 25.9956 6.33331 19Z" transform="translate(434 6)" fill="#CB2026" fill-opacity="0.4"/>
</g>
<g id="_Path__60">
<path d="M 6.33333 12.6667C 9.83114 12.6667 12.6667 9.83114 12.6667 6.33333C 12.6667 2.83553 9.83114 0 6.33333 0C 2.83553 0 0 2.83553 0 6.33333C 0 9.83114 2.83553 12.6667 6.33333 12.6667Z" transform="translate(446.9 18.6666)" fill="#CB2026" fill-opacity="0.4"/>
</g>
</g>
<g id="Target Copy 44">
<g id="_Compound_Path__61">
<path fill-rule="evenodd" clip-rule="evenodd" d="M 0 19C 0 29.4934 8.50659 38 19 38C 29.4934 38 38 29.4934 38 19C 38 13.9609 35.9982 9.12817 32.4351 5.56494C 28.8718 2.00177 24.0391 0 19 0C 8.50659 0 0 8.50659 0 19ZM 6.33331 19C 6.33331 12.0044 12.0044 6.33331 19 6.33331C 25.9956 6.33331 31.6666 12.0044 31.6666 19C 31.6666 25.9956 25.9956 31.6666 19 31.6666C 12.0044 31.6666 6.33331 25.9956 6.33331 19Z" transform="translate(434 129)" fill="#CB2026" fill-opacity="0.4"/>
</g>
<g id="_Path__61">
<path d="M 6.33333 12.6667C 9.83114 12.6667 12.6667 9.83114 12.6667 6.33333C 12.6667 2.83553 9.83114 0 6.33333 0C 2.83553 0 0 2.83553 0 6.33333C 0 9.83114 2.83553 12.6667 6.33333 12.6667Z" transform="translate(446.9 141.667)" fill="#CB2026" fill-opacity="0.4"/>
</g>
</g>
<g id="Target Copy 71">
<g id="_Compound_Path__62">
<path fill-rule="evenodd" clip-rule="evenodd" d="M 0 19C 0 29.4934 8.50659 38 19 38C 29.4934 38 38 29.4934 38 19C 38 13.9609 35.9982 9.12817 32.4351 5.56494C 28.8718 2.00177 24.0391 0 19 0C 8.50659 0 0 8.50659 0 19ZM 6.33331 19C 6.33331 12.0044 12.0044 6.33331 19 6.33331C 25.9956 6.33331 31.6666 12.0044 31.6666 19C 31.6666 25.9956 25.9956 31.6666 19 31.6666C 12.0044 31.6666 6.33331 25.9956 6.33331 19Z" transform="translate(434 252)" fill="#CB2026" fill-opacity="0.4"/>
</g>
<g id="_Path__62">
<path d="M 6.33333 12.6667C 9.83114 12.6667 12.6667 9.83114 12.6667 6.33333C 12.6667 2.83553 9.83114 0 6.33333 0C 2.83553 0 0 2.83553 0 6.33333C 0 9.83114 2.83553 12.6667 6.33333 12.6667Z" transform="translate(446.9 264.667)" fill="#CB2026" fill-opacity="0.4"/>
</g>
</g>
<g id="Target Copy 98">
<g id="_Compound_Path__63">
<path fill-rule="evenodd" clip-rule="evenodd" d="M 0 19C 0 29.4934 8.50659 38 19 38C 29.4934 38 38 29.4934 38 19C 38 13.9609 35.9982 9.12817 32.4351 5.56494C 28.8718 2.00177 24.0391 0 19 0C 8.50659 0 0 8.50659 0 19ZM 6.33331 19C 6.33331 12.0044 12.0044 6.33331 19 6.33331C 25.9956 6.33331 31.6666 12.0044 31.6666 19C 31.6666 25.9956 25.9956 31.6666 19 31.6666C 12.0044 31.6666 6.33331 25.9956 6.33331 19Z" transform="translate(434 375)" fill="#CB2026" fill-opacity="0.4"/>
</g>
<g id="_Path__63">
<path d="M 6.33333 12.6667C 9.83114 12.6667 12.6667 9.83114 12.6667 6.33333C 12.6667 2.83553 9.83114 0 6.33333 0C 2.83553 0 0 2.83553 0 6.33333C 0 9.83114 2.83553 12.6667 6.33333 12.6667Z" transform="translate(446.9 387.667)" fill="#CB2026" fill-opacity="0.4"/>
</g>
</g>
<g id="Target Copy 22">
<g id="_Compound_Path__64">
<path fill-rule="evenodd" clip-rule="evenodd" d="M 0 19C 0 29.4934 8.50659 38 19 38C 29.4934 38 38 29.4934 38 19C 38 13.9609 35.9982 9.12817 32.4351 5.56494C 28.8718 2.00177 24.0391 0 19 0C 8.50659 0 0 8.50659 0 19ZM 6.33331 19C 6.33331 12.0044 12.0044 6.33331 19 6.33331C 25.9956 6.33331 31.6666 12.0044 31.6666 19C 31.6666 25.9956 25.9956 31.6666 19 31.6666C 12.0044 31.6666 6.33331 25.9956 6.33331 19Z" transform="translate(396 68)" fill="#CB2026" fill-opacity="0.4"/>
</g>
<g id="_Path__64">
<path d="M 6.33333 12.6667C 9.83114 12.6667 12.6667 9.83114 12.6667 6.33333C 12.6667 2.83553 9.83114 0 6.33333 0C 2.83553 0 0 2.83553 0 6.33333C 0 9.83114 2.83553 12.6667 6.33333 12.6667Z" transform="translate(408.9 80.6667)" fill="#CB2026" fill-opacity="0.4"/>
</g>
</g>
<g id="Target Copy 45">
<g id="_Compound_Path__65">
<path fill-rule="evenodd" clip-rule="evenodd" d="M 0 19C 0 29.4934 8.50659 38 19 38C 29.4934 38 38 29.4934 38 19C 38 13.9609 35.9982 9.12817 32.4351 5.56494C 28.8718 2.00177 24.0391 0 19 0C 8.50659 0 0 8.50659 0 19ZM 6.33331 19C 6.33331 12.0044 12.0044 6.33331 19 6.33331C 25.9956 6.33331 31.6666 12.0044 31.6666 19C 31.6666 25.9956 25.9956 31.6666 19 31.6666C 12.0044 31.6666 6.33331 25.9956 6.33331 19Z" transform="translate(396 191)" fill="#CB2026" fill-opacity="0.4"/>
</g>
<g id="_Path__65">
<path d="M 6.33333 12.6667C 9.83114 12.6667 12.6667 9.83114 12.6667 6.33333C 12.6667 2.83553 9.83114 0 6.33333 0C 2.83553 0 0 2.83553 0 6.33333C 0 9.83114 2.83553 12.6667 6.33333 12.6667Z" transform="translate(408.9 203.667)" fill="#CB2026" fill-opacity="0.4"/>
</g>
</g>
<g id="Target Copy 72">
<g id="_Compound_Path__66">
<path fill-rule="evenodd" clip-rule="evenodd" d="M 0 19C 0 29.4934 8.50659 38 19 38C 29.4934 38 38 29.4934 38 19C 38 13.9609 35.9982 9.12817 32.4351 5.56494C 28.8718 2.00177 24.0391 0 19 0C 8.50659 0 0 8.50659 0 19ZM 6.33331 19C 6.33331 12.0044 12.0044 6.33331 19 6.33331C 25.9956 6.33331 31.6666 12.0044 31.6666 19C 31.6666 25.9956 25.9956 31.6666 19 31.6666C 12.0044 31.6666 6.33331 25.9956 6.33331 19Z" transform="translate(396 314)" fill="#CB2026" fill-opacity="0.4"/>
</g>
<g id="_Path__66">
<path d="M 6.33333 12.6667C 9.83114 12.6667 12.6667 9.83114 12.6667 6.33333C 12.6667 2.83553 9.83114 0 6.33333 0C 2.83553 0 0 2.83553 0 6.33333C 0 9.83114 2.83553 12.6667 6.33333 12.6667Z" transform="translate(408.9 326.667)" fill="#CB2026" fill-opacity="0.4"/>
</g>
</g>
<g id="Target Copy 11">
<g id="_Compound_Path__67">
<path fill-rule="evenodd" clip-rule="evenodd" d="M 0 19C 0 29.4934 8.50659 38 19 38C 29.4934 38 38 29.4934 38 19C 38 13.9609 35.9982 9.12817 32.4351 5.56494C 28.8718 2.00183 24.0391 0 19 0C 8.50659 0 0 8.50659 0 19ZM 6.33337 19C 6.33337 12.0044 12.0044 6.33337 19 6.33337C 25.9956 6.33337 31.6667 12.0044 31.6667 19C 31.6667 25.9956 25.9956 31.6667 19 31.6667C 12.0044 31.6667 6.33337 25.9956 6.33337 19Z" transform="translate(903 6)" fill="#CB2026" fill-opacity="0.4"/>
</g>
<g id="_Path__67">
<path d="M 6.33333 12.6667C 9.83114 12.6667 12.6667 9.83114 12.6667 6.33333C 12.6667 2.83553 9.83114 0 6.33333 0C 2.83553 0 0 2.83553 0 6.33333C 0 9.83114 2.83553 12.6667 6.33333 12.6667Z" transform="translate(915.9 18.6666)" fill="#CB2026" fill-opacity="0.4"/>
</g>
</g>
<g id="Target Copy 46">
<g id="_Compound_Path__68">
<path fill-rule="evenodd" clip-rule="evenodd" d="M 0 19C 0 29.4934 8.50659 38 19 38C 29.4934 38 38 29.4934 38 19C 38 13.9609 35.9982 9.12817 32.4351 5.56494C 28.8718 2.00177 24.0391 0 19 0C 8.50659 0 0 8.50659 0 19ZM 6.33337 19C 6.33337 12.0044 12.0044 6.33331 19 6.33331C 25.9956 6.33331 31.6667 12.0044 31.6667 19C 31.6667 25.9956 25.9956 31.6666 19 31.6666C 12.0044 31.6666 6.33337 25.9956 6.33337 19Z" transform="translate(903 129)" fill="#CB2026" fill-opacity="0.4"/>
</g>
<g id="_Path__68">
<path d="M 6.33333 12.6667C 9.83114 12.6667 12.6667 9.83114 12.6667 6.33333C 12.6667 2.83553 9.83114 0 6.33333 0C 2.83553 0 0 2.83553 0 6.33333C 0 9.83114 2.83553 12.6667 6.33333 12.6667Z" transform="translate(915.9 141.667)" fill="#CB2026" fill-opacity="0.4"/>
</g>
</g>
<g id="Target Copy 73">
<g id="_Compound_Path__69">
<path fill-rule="evenodd" clip-rule="evenodd" d="M 0 19C 0 29.4934 8.50659 38 19 38C 29.4934 38 38 29.4934 38 19C 38 13.9609 35.9982 9.12817 32.4351 5.56494C 28.8718 2.00177 24.0391 0 19 0C 8.50659 0 0 8.50659 0 19ZM 6.33337 19C 6.33337 12.0044 12.0044 6.33331 19 6.33331C 25.9956 6.33331 31.6667 12.0044 31.6667 19C 31.6667 25.9956 25.9956 31.6666 19 31.6666C 12.0044 31.6666 6.33337 25.9956 6.33337 19Z" transform="translate(903 252)" fill="#CB2026" fill-opacity="0.4"/>
</g>
<g id="_Path__69">
<path d="M 6.33333 12.6667C 9.83114 12.6667 12.6667 9.83114 12.6667 6.33333C 12.6667 2.83553 9.83114 0 6.33333 0C 2.83553 0 0 2.83553 0 6.33333C 0 9.83114 2.83553 12.6667 6.33333 12.6667Z" transform="translate(915.9 264.667)" fill="#CB2026" fill-opacity="0.4"/>
</g>
</g>
<g id="Target Copy 100">
<g id="_Compound_Path__70">
<path fill-rule="evenodd" clip-rule="evenodd" d="M 0 19C 0 29.4934 8.50659 38 19 38C 29.4934 38 38 29.4934 38 19C 38 13.9609 35.9982 9.12817 32.4351 5.56494C 28.8718 2.00177 24.0391 0 19 0C 8.50659 0 0 8.50659 0 19ZM 6.33337 19C 6.33337 12.0044 12.0044 6.33331 19 6.33331C 25.9956 6.33331 31.6667 12.0044 31.6667 19C 31.6667 25.9956 25.9956 31.6666 19 31.6666C 12.0044 31.6666 6.33337 25.9956 6.33337 19Z" transform="translate(903 375)" fill="#CB2026" fill-opacity="0.4"/>
</g>
<g id="_Path__70">
<path d="M 6.33333 12.6667C 9.83114 12.6667 12.6667 9.83114 12.6667 6.33333C 12.6667 2.83553 9.83114 0 6.33333 0C 2.83553 0 0 2.83553 0 6.33333C 0 9.83114 2.83553 12.6667 6.33333 12.6667Z" transform="translate(915.9 387.667)" fill="#CB2026" fill-opacity="0.4"/>
</g>
</g>
<g id="Target Copy 23">
<g id="_Compound_Path__71">
<path fill-rule="evenodd" clip-rule="evenodd" d="M 0 19C 0 29.4934 8.50659 38 19 38C 29.4934 38 38 29.4934 38 19C 38 13.9609 35.9982 9.12817 32.4351 5.56494C 28.8718 2.00177 24.0391 0 19 0C 8.50659 0 0 8.50659 0 19ZM 6.33337 19C 6.33337 12.0044 12.0044 6.33331 19 6.33331C 25.9956 6.33331 31.6667 12.0044 31.6667 19C 31.6667 25.9956 25.9956 31.6666 19 31.6666C 12.0044 31.6666 6.33337 25.9956 6.33337 19Z" transform="translate(865 68)" fill="#CB2026" fill-opacity="0.4"/>
</g>
<g id="_Path__71">
<path d="M 6.33333 12.6667C 9.83114 12.6667 12.6667 9.83114 12.6667 6.33333C 12.6667 2.83553 9.83114 0 6.33333 0C 2.83553 0 0 2.83553 0 6.33333C 0 9.83114 2.83553 12.6667 6.33333 12.6667Z" transform="translate(877.9 80.6667)" fill="#CB2026" fill-opacity="0.4"/>
</g>
</g>
<g id="Target Copy 47">
<g id="_Compound_Path__72">
<path fill-rule="evenodd" clip-rule="evenodd" d="M 0 19C 0 29.4934 8.50659 38 19 38C 29.4934 38 38 29.4934 38 19C 38 13.9609 35.9982 9.12817 32.4351 5.56494C 28.8718 2.00177 24.0391 0 19 0C 8.50659 0 0 8.50659 0 19ZM 6.33337 19C 6.33337 12.0044 12.0044 6.33331 19 6.33331C 25.9956 6.33331 31.6667 12.0044 31.6667 19C 31.6667 25.9956 25.9956 31.6666 19 31.6666C 12.0044 31.6666 6.33337 25.9956 6.33337 19Z" transform="translate(865 191)" fill="#CB2026" fill-opacity="0.4"/>
</g>
<g id="_Path__72">
<path d="M 6.33333 12.6667C 9.83114 12.6667 12.6667 9.83114 12.6667 6.33333C 12.6667 2.83553 9.83114 0 6.33333 0C 2.83553 0 0 2.83553 0 6.33333C 0 9.83114 2.83553 12.6667 6.33333 12.6667Z" transform="translate(877.9 203.667)" fill="#CB2026" fill-opacity="0.4"/>
</g>
</g>
<g id="Target Copy 74">
<g id="_Compound_Path__73">
<path fill-rule="evenodd" clip-rule="evenodd" d="M 0 19C 0 29.4934 8.50659 38 19 38C 29.4934 38 38 29.4934 38 19C 38 13.9609 35.9982 9.12817 32.4351 5.56494C 28.8718 2.00177 24.0391 0 19 0C 8.50659 0 0 8.50659 0 19ZM 6.33337 19C 6.33337 12.0044 12.0044 6.33331 19 6.33331C 25.9956 6.33331 31.6667 12.0044 31.6667 19C 31.6667 25.9956 25.9956 31.6666 19 31.6666C 12.0044 31.6666 6.33337 25.9956 6.33337 19Z" transform="translate(865 314)" fill="#CB2026" fill-opacity="0.4"/>
</g>
<g id="_Path__73">
<path d="M 6.33333 12.6667C 9.83114 12.6667 12.6667 9.83114 12.6667 6.33333C 12.6667 2.83553 9.83114 0 6.33333 0C 2.83553 0 0 2.83553 0 6.33333C 0 9.83114 2.83553 12.6667 6.33333 12.6667Z" transform="translate(877.9 326.667)" fill="#CB2026" fill-opacity="0.4"/>
</g>
</g>
<g id="Target Copy 3">
<g id="_Compound_Path__74">
<path fill-rule="evenodd" clip-rule="evenodd" d="M 0 19C 0 29.4934 8.50659 38 19 38C 29.4934 38 38 29.4934 38 19C 38 13.9609 35.9982 9.12817 32.4351 5.56494C 28.8718 2.00183 24.0391 0 19 0C 8.50659 0 0 8.50659 0 19ZM 6.33331 19C 6.33331 12.0044 12.0044 6.33337 19 6.33337C 25.9956 6.33337 31.6666 12.0044 31.6666 19C 31.6666 25.9956 25.9956 31.6667 19 31.6667C 12.0044 31.6667 6.33331 25.9956 6.33331 19Z" transform="translate(278 6)" fill="#CB2026" fill-opacity="0.4"/>
</g>
<g id="_Path__74">
<path d="M 6.33333 12.6667C 9.83114 12.6667 12.6667 9.83114 12.6667 6.33333C 12.6667 2.83553 9.83114 0 6.33333 0C 2.83553 0 0 2.83553 0 6.33333C 0 9.83114 2.83553 12.6667 6.33333 12.6667Z" transform="translate(290.9 18.6666)" fill="#CB2026" fill-opacity="0.4"/>
</g>
</g>
<g id="Target Copy 48">
<g id="_Compound_Path__75">
<path fill-rule="evenodd" clip-rule="evenodd" d="M 0 19C 0 29.4934 8.50659 38 19 38C 29.4934 38 38 29.4934 38 19C 38 13.9609 35.9982 9.12817 32.4351 5.56494C 28.8718 2.00177 24.0391 0 19 0C 8.50659 0 0 8.50659 0 19ZM 6.33331 19C 6.33331 12.0044 12.0044 6.33331 19 6.33331C 25.9956 6.33331 31.6666 12.0044 31.6666 19C 31.6666 25.9956 25.9956 31.6666 19 31.6666C 12.0044 31.6666 6.33331 25.9956 6.33331 19Z" transform="translate(278 129)" fill="#CB2026" fill-opacity="0.4"/>
</g>
<g id="_Path__75">
<path d="M 6.33333 12.6667C 9.83114 12.6667 12.6667 9.83114 12.6667 6.33333C 12.6667 2.83553 9.83114 0 6.33333 0C 2.83553 0 0 2.83553 0 6.33333C 0 9.83114 2.83553 12.6667 6.33333 12.6667Z" transform="translate(290.9 141.667)" fill="#CB2026" fill-opacity="0.4"/>
</g>
</g>
<g id="Target Copy 75">
<g id="_Compound_Path__76">
<path fill-rule="evenodd" clip-rule="evenodd" d="M 0 19C 0 29.4934 8.50659 38 19 38C 29.4934 38 38 29.4934 38 19C 38 13.9609 35.9982 9.12817 32.4351 5.56494C 28.8718 2.00177 24.0391 0 19 0C 8.50659 0 0 8.50659 0 19ZM 6.33331 19C 6.33331 12.0044 12.0044 6.33331 19 6.33331C 25.9956 6.33331 31.6666 12.0044 31.6666 19C 31.6666 25.9956 25.9956 31.6666 19 31.6666C 12.0044 31.6666 6.33331 25.9956 6.33331 19Z" transform="translate(278 252)" fill="#CB2026" fill-opacity="0.4"/>
</g>
<g id="_Path__76">
<path d="M 6.33333 12.6667C 9.83114 12.6667 12.6667 9.83114 12.6667 6.33333C 12.6667 2.83553 9.83114 0 6.33333 0C 2.83553 0 0 2.83553 0 6.33333C 0 9.83114 2.83553 12.6667 6.33333 12.6667Z" transform="translate(290.9 264.667)" fill="#CB2026" fill-opacity="0.4"/>
</g>
</g>
<g id="Target Copy 102">
<g id="_Compound_Path__77">
<path fill-rule="evenodd" clip-rule="evenodd" d="M 0 19C 0 29.4934 8.50659 38 19 38C 29.4934 38 38 29.4934 38 19C 38 13.9609 35.9982 9.12817 32.4351 5.56494C 28.8718 2.00177 24.0391 0 19 0C 8.50659 0 0 8.50659 0 19ZM 6.33331 19C 6.33331 12.0044 12.0044 6.33331 19 6.33331C 25.9956 6.33331 31.6666 12.0044 31.6666 19C 31.6666 25.9956 25.9956 31.6666 19 31.6666C 12.0044 31.6666 6.33331 25.9956 6.33331 19Z" transform="translate(278 375)" fill="#CB2026" fill-opacity="0.4"/>
</g>
<g id="_Path__77">
<path d="M 6.33333 12.6667C 9.83114 12.6667 12.6667 9.83114 12.6667 6.33333C 12.6667 2.83553 9.83114 0 6.33333 0C 2.83553 0 0 2.83553 0 6.33333C 0 9.83114 2.83553 12.6667 6.33333 12.6667Z" transform="translate(290.9 387.667)" fill="#CB2026" fill-opacity="0.4"/>
</g>
</g>
<g id="Target Copy 24">
<g id="_Compound_Path__78">
<path fill-rule="evenodd" clip-rule="evenodd" d="M 0 19C 0 29.4934 8.50659 38 19 38C 29.4934 38 38 29.4934 38 19C 38 13.9609 35.9982 9.12817 32.4351 5.56494C 28.8718 2.00177 24.0391 0 19 0C 8.50659 0 0 8.50659 0 19ZM 6.33331 19C 6.33331 12.0044 12.0044 6.33331 19 6.33331C 25.9956 6.33331 31.6666 12.0044 31.6666 19C 31.6666 25.9956 25.9956 31.6666 19 31.6666C 12.0044 31.6666 6.33331 25.9956 6.33331 19Z" transform="translate(240 68)" fill="#CB2026" fill-opacity="0.4"/>
</g>
<g id="_Path__78">
<path d="M 6.33333 12.6667C 9.83114 12.6667 12.6667 9.83114 12.6667 6.33333C 12.6667 2.83553 9.83114 0 6.33333 0C 2.83553 0 0 2.83553 0 6.33333C 0 9.83114 2.83553 12.6667 6.33333 12.6667Z" transform="translate(252.9 80.6667)" fill="#CB2026" fill-opacity="0.4"/>
</g>
</g>
<g id="Target Copy 49">
<g id="_Compound_Path__79">
<path fill-rule="evenodd" clip-rule="evenodd" d="M 0 19C 0 29.4934 8.50659 38 19 38C 29.4934 38 38 29.4934 38 19C 38 13.9609 35.9982 9.12817 32.4351 5.56494C 28.8718 2.00177 24.0391 0 19 0C 8.50659 0 0 8.50659 0 19ZM 6.33331 19C 6.33331 12.0044 12.0044 6.33331 19 6.33331C 25.9956 6.33331 31.6666 12.0044 31.6666 19C 31.6666 25.9956 25.9956 31.6666 19 31.6666C 12.0044 31.6666 6.33331 25.9956 6.33331 19Z" transform="translate(240 191)" fill="#CB2026" fill-opacity="0.4"/>
</g>
<g id="_Path__79">
<path d="M 6.33333 12.6667C 9.83114 12.6667 12.6667 9.83114 12.6667 6.33333C 12.6667 2.83553 9.83114 0 6.33333 0C 2.83553 0 0 2.83553 0 6.33333C 0 9.83114 2.83553 12.6667 6.33333 12.6667Z" transform="translate(252.9 203.667)" fill="#CB2026" fill-opacity="0.4"/>
</g>
</g>
<g id="Target Copy 76">
<g id="_Compound_Path__80">
<path fill-rule="evenodd" clip-rule="evenodd" d="M 0 19C 0 29.4934 8.50659 38 19 38C 29.4934 38 38 29.4934 38 19C 38 13.9609 35.9982 9.12817 32.4351 5.56494C 28.8718 2.00177 24.0391 0 19 0C 8.50659 0 0 8.50659 0 19ZM 6.33331 19C 6.33331 12.0044 12.0044 6.33331 19 6.33331C 25.9956 6.33331 31.6666 12.0044 31.6666 19C 31.6666 25.9956 25.9956 31.6666 19 31.6666C 12.0044 31.6666 6.33331 25.9956 6.33331 19Z" transform="translate(240 314)" fill="#CB2026" fill-opacity="0.4"/>
</g>
<g id="_Path__80">
<path d="M 6.33333 12.6667C 9.83114 12.6667 12.6667 9.83114 12.6667 6.33333C 12.6667 2.83553 9.83114 0 6.33333 0C 2.83553 0 0 2.83553 0 6.33333C 0 9.83114 2.83553 12.6667 6.33333 12.6667Z" transform="translate(252.9 326.667)" fill="#CB2026" fill-opacity="0.4"/>
</g>
</g>
<g id="Target Copy 12">
<g id="_Compound_Path__81">
<path fill-rule="evenodd" clip-rule="evenodd" d="M 0 19C 0 29.4934 8.50659 38 19 38C 29.4934 38 38 29.4934 38 19C 38 13.9609 35.9982 9.12817 32.4351 5.56494C 28.8718 2.00183 24.0391 0 19 0C 8.50659 0 0 8.50659 0 19ZM 6.33337 19C 6.33337 12.0044 12.0044 6.33337 19 6.33337C 25.9956 6.33337 31.6667 12.0044 31.6667 19C 31.6667 25.9956 25.9956 31.6667 19 31.6667C 12.0044 31.6667 6.33337 25.9956 6.33337 19Z" transform="translate(746 6)" fill="#CB2026" fill-opacity="0.4"/>
</g>
<g id="_Path__81">
<path d="M 6.33333 12.6667C 9.83114 12.6667 12.6667 9.83114 12.6667 6.33333C 12.6667 2.83553 9.83114 0 6.33333 0C 2.83553 0 0 2.83553 0 6.33333C 0 9.83114 2.83553 12.6667 6.33333 12.6667Z" transform="translate(758.9 18.6666)" fill="#CB2026" fill-opacity="0.4"/>
</g>
</g>
<g id="Target Copy 50">
<g id="_Compound_Path__82">
<path fill-rule="evenodd" clip-rule="evenodd" d="M 0 19C 0 29.4934 8.50659 38 19 38C 29.4934 38 38 29.4934 38 19C 38 13.9609 35.9982 9.12817 32.4351 5.56494C 28.8718 2.00177 24.0391 0 19 0C 8.50659 0 0 8.50659 0 19ZM 6.33337 19C 6.33337 12.0044 12.0044 6.33331 19 6.33331C 25.9956 6.33331 31.6667 12.0044 31.6667 19C 31.6667 25.9956 25.9956 31.6666 19 31.6666C 12.0044 31.6666 6.33337 25.9956 6.33337 19Z" transform="translate(746 129)" fill="#CB2026" fill-opacity="0.4"/>
</g>
<g id="_Path__82">
<path d="M 6.33333 12.6667C 9.83114 12.6667 12.6667 9.83114 12.6667 6.33333C 12.6667 2.83553 9.83114 0 6.33333 0C 2.83553 0 0 2.83553 0 6.33333C 0 9.83114 2.83553 12.6667 6.33333 12.6667Z" transform="translate(758.9 141.667)" fill="#CB2026" fill-opacity="0.4"/>
</g>
</g>
<g id="Target Copy 77">
<g id="_Compound_Path__83">
<path fill-rule="evenodd" clip-rule="evenodd" d="M 0 19C 0 29.4934 8.50659 38 19 38C 29.4934 38 38 29.4934 38 19C 38 13.9609 35.9982 9.12817 32.4351 5.56494C 28.8718 2.00177 24.0391 0 19 0C 8.50659 0 0 8.50659 0 19ZM 6.33337 19C 6.33337 12.0044 12.0044 6.33331 19 6.33331C 25.9956 6.33331 31.6667 12.0044 31.6667 19C 31.6667 25.9956 25.9956 31.6666 19 31.6666C 12.0044 31.6666 6.33337 25.9956 6.33337 19Z" transform="translate(746 252)" fill="#CB2026" fill-opacity="0.4"/>
</g>
<g id="_Path__83">
<path d="M 6.33333 12.6667C 9.83114 12.6667 12.6667 9.83114 12.6667 6.33333C 12.6667 2.83553 9.83114 0 6.33333 0C 2.83553 0 0 2.83553 0 6.33333C 0 9.83114 2.83553 12.6667 6.33333 12.6667Z" transform="translate(758.9 264.667)" fill="#CB2026" fill-opacity="0.4"/>
</g>
</g>
<g id="Target Copy 104">
<g id="_Compound_Path__84">
<path fill-rule="evenodd" clip-rule="evenodd" d="M 0 19C 0 29.4934 8.50659 38 19 38C 29.4934 38 38 29.4934 38 19C 38 13.9609 35.9982 9.12817 32.4351 5.56494C 28.8718 2.00177 24.0391 0 19 0C 8.50659 0 0 8.50659 0 19ZM 6.33337 19C 6.33337 12.0044 12.0044 6.33331 19 6.33331C 25.9956 6.33331 31.6667 12.0044 31.6667 19C 31.6667 25.9956 25.9956 31.6666 19 31.6666C 12.0044 31.6666 6.33337 25.9956 6.33337 19Z" transform="translate(746 375)" fill="#CB2026" fill-opacity="0.4"/>
</g>
<g id="_Path__84">
<path d="M 6.33333 12.6667C 9.83114 12.6667 12.6667 9.83114 12.6667 6.33333C 12.6667 2.83553 9.83114 0 6.33333 0C 2.83553 0 0 2.83553 0 6.33333C 0 9.83114 2.83553 12.6667 6.33333 12.6667Z" transform="translate(758.9 387.667)" fill="#CB2026" fill-opacity="0.4"/>
</g>
</g>
<g id="Target Copy 25">
<g id="_Compound_Path__85">
<path fill-rule="evenodd" clip-rule="evenodd" d="M 0 19C 0 29.4934 8.50659 38 19 38C 29.4934 38 38 29.4934 38 19C 38 13.9609 35.9982 9.12817 32.4351 5.56494C 28.8718 2.00177 24.0391 0 19 0C 8.50659 0 0 8.50659 0 19ZM 6.33337 19C 6.33337 12.0044 12.0044 6.33331 19 6.33331C 25.9956 6.33331 31.6667 12.0044 31.6667 19C 31.6667 25.9956 25.9956 31.6666 19 31.6666C 12.0044 31.6666 6.33337 25.9956 6.33337 19Z" transform="translate(709 68)" fill="#CB2026" fill-opacity="0.4"/>
</g>
<g id="_Path__85">
<path d="M 6.33333 12.6667C 9.83114 12.6667 12.6667 9.83114 12.6667 6.33333C 12.6667 2.83553 9.83114 0 6.33333 0C 2.83553 0 0 2.83553 0 6.33333C 0 9.83114 2.83553 12.6667 6.33333 12.6667Z" transform="translate(721.9 80.6667)" fill="#CB2026" fill-opacity="0.4"/>
</g>
</g>
<g id="Target Copy 51">
<g id="_Compound_Path__86">
<path fill-rule="evenodd" clip-rule="evenodd" d="M 0 19C 0 29.4934 8.50659 38 19 38C 29.4934 38 38 29.4934 38 19C 38 13.9609 35.9982 9.12817 32.4351 5.56494C 28.8718 2.00177 24.0391 0 19 0C 8.50659 0 0 8.50659 0 19ZM 6.33337 19C 6.33337 12.0044 12.0044 6.33331 19 6.33331C 25.9956 6.33331 31.6667 12.0044 31.6667 19C 31.6667 25.9956 25.9956 31.6666 19 31.6666C 12.0044 31.6666 6.33337 25.9956 6.33337 19Z" transform="translate(709 191)" fill="#CB2026" fill-opacity="0.4"/>
</g>
<g id="_Path__86">
<path d="M 6.33333 12.6667C 9.83114 12.6667 12.6667 9.83114 12.6667 6.33333C 12.6667 2.83553 9.83114 0 6.33333 0C 2.83553 0 0 2.83553 0 6.33333C 0 9.83114 2.83553 12.6667 6.33333 12.6667Z" transform="translate(721.9 203.667)" fill="#CB2026" fill-opacity="0.4"/>
</g>
</g>
<g id="Target Copy 78">
<g id="_Compound_Path__87">
<path fill-rule="evenodd" clip-rule="evenodd" d="M 0 19C 0 29.4934 8.50659 38 19 38C 29.4934 38 38 29.4934 38 19C 38 13.9609 35.9982 9.12817 32.4351 5.56494C 28.8718 2.00177 24.0391 0 19 0C 8.50659 0 0 8.50659 0 19ZM 6.33337 19C 6.33337 12.0044 12.0044 6.33331 19 6.33331C 25.9956 6.33331 31.6667 12.0044 31.6667 19C 31.6667 25.9956 25.9956 31.6666 19 31.6666C 12.0044 31.6666 6.33337 25.9956 6.33337 19Z" transform="translate(709 314)" fill="#CB2026" fill-opacity="0.4"/>
</g>
<g id="_Path__87">
<path d="M 6.33333 12.6667C 9.83114 12.6667 12.6667 9.83114 12.6667 6.33333C 12.6667 2.83553 9.83114 0 6.33333 0C 2.83553 0 0 2.83553 0 6.33333C 0 9.83114 2.83553 12.6667 6.33333 12.6667Z" transform="translate(721.9 326.667)" fill="#CB2026" fill-opacity="0.4"/>
</g>
</g>
<g id="Target Copy 7">
<g id="_Compound_Path__88">
<path fill-rule="evenodd" clip-rule="evenodd" d="M 0 19C 0 29.4934 8.50659 38 19 38C 29.4934 38 38 29.4934 38 19C 38 13.9609 35.9982 9.12817 32.4351 5.56494C 28.8718 2.00183 24.0391 0 19 0C 8.50659 0 0 8.50659 0 19ZM 6.33337 19C 6.33337 12.0044 12.0044 6.33337 19 6.33337C 25.9956 6.33337 31.6667 12.0044 31.6667 19C 31.6667 25.9956 25.9956 31.6667 19 31.6667C 12.0044 31.6667 6.33337 25.9956 6.33337 19Z" transform="translate(590 6)" fill="#CB2026" fill-opacity="0.4"/>
</g>
<g id="_Path__88">
<path d="M 6.33333 12.6667C 9.83114 12.6667 12.6667 9.83114 12.6667 6.33333C 12.6667 2.83553 9.83114 0 6.33333 0C 2.83553 0 0 2.83553 0 6.33333C 0 9.83114 2.83553 12.6667 6.33333 12.6667Z" transform="translate(602.9 18.6666)" fill="#CB2026" fill-opacity="0.4"/>
</g>
</g>
<g id="Target Copy 52">
<g id="_Compound_Path__89">
<path fill-rule="evenodd" clip-rule="evenodd" d="M 0 19C 0 29.4934 8.50659 38 19 38C 29.4934 38 38 29.4934 38 19C 38 13.9609 35.9982 9.12817 32.4351 5.56494C 28.8718 2.00177 24.0391 0 19 0C 8.50659 0 0 8.50659 0 19ZM 6.33337 19C 6.33337 12.0044 12.0044 6.33331 19 6.33331C 25.9956 6.33331 31.6667 12.0044 31.6667 19C 31.6667 25.9956 25.9956 31.6666 19 31.6666C 12.0044 31.6666 6.33337 25.9956 6.33337 19Z" transform="translate(590 129)" fill="#CB2026" fill-opacity="0.4"/>
</g>
<g id="_Path__89">
<path d="M 6.33333 12.6667C 9.83114 12.6667 12.6667 9.83114 12.6667 6.33333C 12.6667 2.83553 9.83114 0 6.33333 0C 2.83553 0 0 2.83553 0 6.33333C 0 9.83114 2.83553 12.6667 6.33333 12.6667Z" transform="translate(602.9 141.667)" fill="#CB2026" fill-opacity="0.4"/>
</g>
</g>
<g id="Target Copy 79">
<g id="_Compound_Path__90">
<path fill-rule="evenodd" clip-rule="evenodd" d="M 0 19C 0 29.4934 8.50659 38 19 38C 29.4934 38 38 29.4934 38 19C 38 13.9609 35.9982 9.12817 32.4351 5.56494C 28.8718 2.00177 24.0391 0 19 0C 8.50659 0 0 8.50659 0 19ZM 6.33337 19C 6.33337 12.0044 12.0044 6.33331 19 6.33331C 25.9956 6.33331 31.6667 12.0044 31.6667 19C 31.6667 25.9956 25.9956 31.6666 19 31.6666C 12.0044 31.6666 6.33337 25.9956 6.33337 19Z" transform="translate(590 252)" fill="#CB2026" fill-opacity="0.4"/>
</g>
<g id="_Path__90">
<path d="M 6.33333 12.6667C 9.83114 12.6667 12.6667 9.83114 12.6667 6.33333C 12.6667 2.83553 9.83114 0 6.33333 0C 2.83553 0 0 2.83553 0 6.33333C 0 9.83114 2.83553 12.6667 6.33333 12.6667Z" transform="translate(602.9 264.667)" fill="#CB2026" fill-opacity="0.4"/>
</g>
</g>
<g id="Target Copy 106">
<g id="_Compound_Path__91">
<path fill-rule="evenodd" clip-rule="evenodd" d="M 0 19C 0 29.4934 8.50659 38 19 38C 29.4934 38 38 29.4934 38 19C 38 13.9609 35.9982 9.12817 32.4351 5.56494C 28.8718 2.00177 24.0391 0 19 0C 8.50659 0 0 8.50659 0 19ZM 6.33337 19C 6.33337 12.0044 12.0044 6.33331 19 6.33331C 25.9956 6.33331 31.6667 12.0044 31.6667 19C 31.6667 25.9956 25.9956 31.6666 19 31.6666C 12.0044 31.6666 6.33337 25.9956 6.33337 19Z" transform="translate(590 375)" fill="#CB2026" fill-opacity="0.4"/>
</g>
<g id="_Path__91">
<path d="M 6.33333 12.6667C 9.83114 12.6667 12.6667 9.83114 12.6667 6.33333C 12.6667 2.83553 9.83114 0 6.33333 0C 2.83553 0 0 2.83553 0 6.33333C 0 9.83114 2.83553 12.6667 6.33333 12.6667Z" transform="translate(602.9 387.667)" fill="#CB2026" fill-opacity="0.4"/>
</g>
</g>
<g id="Target Copy 26">
<g id="_Compound_Path__92">
<path fill-rule="evenodd" clip-rule="evenodd" d="M 0 19C 0 29.4934 8.50659 38 19 38C 29.4934 38 38 29.4934 38 19C 38 13.9609 35.9982 9.12817 32.4351 5.56494C 28.8718 2.00177 24.0391 0 19 0C 8.50659 0 0 8.50659 0 19ZM 6.33337 19C 6.33337 12.0044 12.0044 6.33331 19 6.33331C 25.9956 6.33331 31.6667 12.0044 31.6667 19C 31.6667 25.9956 25.9956 31.6666 19 31.6666C 12.0044 31.6666 6.33337 25.9956 6.33337 19Z" transform="translate(553 68)" fill="#CB2026" fill-opacity="0.4"/>
</g>
<g id="_Path__92">
<path d="M 6.33333 12.6667C 9.83114 12.6667 12.6667 9.83114 12.6667 6.33333C 12.6667 2.83553 9.83114 0 6.33333 0C 2.83553 0 0 2.83553 0 6.33333C 0 9.83114 2.83553 12.6667 6.33333 12.6667Z" transform="translate(565.9 80.6667)" fill="#CB2026" fill-opacity="0.4"/>
</g>
</g>
<g id="Target Copy 53">
<g id="_Compound_Path__93">
<path fill-rule="evenodd" clip-rule="evenodd" d="M 0 19C 0 29.4934 8.50659 38 19 38C 29.4934 38 38 29.4934 38 19C 38 13.9609 35.9982 9.12817 32.4351 5.56494C 28.8718 2.00177 24.0391 0 19 0C 8.50659 0 0 8.50659 0 19ZM 6.33337 19C 6.33337 12.0044 12.0044 6.33331 19 6.33331C 25.9956 6.33331 31.6667 12.0044 31.6667 19C 31.6667 25.9956 25.9956 31.6666 19 31.6666C 12.0044 31.6666 6.33337 25.9956 6.33337 19Z" transform="translate(553 191)" fill="#CB2026" fill-opacity="0.4"/>
</g>
<g id="_Path__93">
<path d="M 6.33333 12.6667C 9.83114 12.6667 12.6667 9.83114 12.6667 6.33333C 12.6667 2.83553 9.83114 0 6.33333 0C 2.83553 0 0 2.83553 0 6.33333C 0 9.83114 2.83553 12.6667 6.33333 12.6667Z" transform="translate(565.9 203.667)" fill="#CB2026" fill-opacity="0.4"/>
</g>
</g>
<g id="Target Copy 80">
<g id="_Compound_Path__94">
<path fill-rule="evenodd" clip-rule="evenodd" d="M 0 19C 0 29.4934 8.50659 38 19 38C 29.4934 38 38 29.4934 38 19C 38 13.9609 35.9982 9.12817 32.4351 5.56494C 28.8718 2.00177 24.0391 0 19 0C 8.50659 0 0 8.50659 0 19ZM 6.33337 19C 6.33337 12.0044 12.0044 6.33331 19 6.33331C 25.9956 6.33331 31.6667 12.0044 31.6667 19C 31.6667 25.9956 25.9956 31.6666 19 31.6666C 12.0044 31.6666 6.33337 25.9956 6.33337 19Z" transform="translate(553 314)" fill="#CB2026" fill-opacity="0.4"/>
</g>
<g id="_Path__94">
<path d="M 6.33333 12.6667C 9.83114 12.6667 12.6667 9.83114 12.6667 6.33333C 12.6667 2.83553 9.83114 0 6.33333 0C 2.83553 0 0 2.83553 0 6.33333C 0 9.83114 2.83553 12.6667 6.33333 12.6667Z" transform="translate(565.9 326.667)" fill="#CB2026" fill-opacity="0.4"/>
</g>
</g>
<g id="Target Copy 13">
<g id="_Compound_Path__95">
<path fill-rule="evenodd" clip-rule="evenodd" d="M 0 19C 0 29.4934 8.50659 38 19 38C 29.4934 38 38 29.4934 38 19C 38 13.9609 35.9982 9.12817 32.4351 5.56494C 28.8718 2.00183 24.0391 0 19 0C 8.50659 0 0 8.50659 0 19ZM 6.33337 19C 6.33337 12.0044 12.0044 6.33337 19 6.33337C 25.9956 6.33337 31.6667 12.0044 31.6667 19C 31.6667 25.9956 25.9956 31.6667 19 31.6667C 12.0044 31.6667 6.33337 25.9956 6.33337 19Z" transform="translate(1060 6)" fill="#CB2026" fill-opacity="0.4"/>
</g>
<g id="_Path__95">
<path d="M 6.33333 12.6667C 9.83114 12.6667 12.6667 9.83114 12.6667 6.33333C 12.6667 2.83553 9.83114 0 6.33333 0C 2.83553 0 0 2.83553 0 6.33333C 0 9.83114 2.83553 12.6667 6.33333 12.6667Z" transform="translate(1072.9 18.6666)" fill="#CB2026" fill-opacity="0.4"/>
</g>
</g>
<g id="Target Copy 27">
<g id="_Compound_Path__96">
<path fill-rule="evenodd" clip-rule="evenodd" d="M 0 19C 0 29.4934 8.50659 38 19 38C 29.4934 38 38 29.4934 38 19C 38 13.9609 35.9982 9.12817 32.4351 5.56494C 28.8718 2.00177 24.0391 0 19 0C 8.50659 0 0 8.50659 0 19ZM 6.33337 19C 6.33337 12.0044 12.0044 6.33331 19 6.33331C 25.9956 6.33331 31.6667 12.0044 31.6667 19C 31.6667 25.9956 25.9956 31.6666 19 31.6666C 12.0044 31.6666 6.33337 25.9956 6.33337 19Z" transform="translate(1022 68)" fill="#CB2026" fill-opacity="0.4"/>
</g>
<g id="_Path__96">
<path d="M 6.33333 12.6667C 9.83114 12.6667 12.6667 9.83114 12.6667 6.33333C 12.6667 2.83553 9.83114 0 6.33333 0C 2.83553 0 0 2.83553 0 6.33333C 0 9.83114 2.83553 12.6667 6.33333 12.6667Z" transform="translate(1034.9 80.6667)" fill="#CB2026" fill-opacity="0.4"/>
</g>
</g>
<g id="Target Copy 54">
<g id="_Compound_Path__97">
<path fill-rule="evenodd" clip-rule="evenodd" d="M 0 19C 0 29.4934 8.50659 38 19 38C 29.4934 38 38 29.4934 38 19C 38 13.9609 35.9982 9.12817 32.4351 5.56494C 28.8718 2.00177 24.0391 0 19 0C 8.50659 0 0 8.50659 0 19ZM 6.33337 19C 6.33337 12.0044 12.0044 6.33331 19 6.33331C 25.9956 6.33331 31.6667 12.0044 31.6667 19C 31.6667 25.9956 25.9956 31.6666 19 31.6666C 12.0044 31.6666 6.33337 25.9956 6.33337 19Z" transform="translate(1022 191)" fill="#CB2026" fill-opacity="0.4"/>
</g>
<g id="_Path__97">
<path d="M 6.33333 12.6667C 9.83114 12.6667 12.6667 9.83114 12.6667 6.33333C 12.6667 2.83553 9.83114 0 6.33333 0C 2.83553 0 0 2.83553 0 6.33333C 0 9.83114 2.83553 12.6667 6.33333 12.6667Z" transform="translate(1034.9 203.667)" fill="#CB2026" fill-opacity="0.4"/>
</g>
</g>
<g id="Target Copy 81">
<g id="_Compound_Path__98">
<path fill-rule="evenodd" clip-rule="evenodd" d="M 0 19C 0 29.4934 8.50659 38 19 38C 29.4934 38 38 29.4934 38 19C 38 13.9609 35.9982 9.12817 32.4351 5.56494C 28.8718 2.00177 24.0391 0 19 0C 8.50659 0 0 8.50659 0 19ZM 6.33337 19C 6.33337 12.0044 12.0044 6.33331 19 6.33331C 25.9956 6.33331 31.6667 12.0044 31.6667 19C 31.6667 25.9956 25.9956 31.6666 19 31.6666C 12.0044 31.6666 6.33337 25.9956 6.33337 19Z" transform="translate(1022 314)" fill="#CB2026" fill-opacity="0.4"/>
</g>
<g id="_Path__98">
<path d="M 6.33333 12.6667C 9.83114 12.6667 12.6667 9.83114 12.6667 6.33333C 12.6667 2.83553 9.83114 0 6.33333 0C 2.83553 0 0 2.83553 0 6.33333C 0 9.83114 2.83553 12.6667 6.33333 12.6667Z" transform="translate(1034.9 326.667)" fill="#CB2026" fill-opacity="0.4"/>
</g>
</g>
</g>
</g>
</g>
</g>
</svg>

