<svg width="107" height="40" viewBox="0 0 107 40" version="1.1" xmlns="http://www.w3.org/2000/svg" xmlns:xlink="http://www.w3.org/1999/xlink">
<g id="Canvas" fill="none">
<g id="shipt logo">
<g id="shipt-logo_CMYK Copy 2">
<g id="Fill 1">
<path fill-rule="evenodd" clip-rule="evenodd" d="M 38.9546 19.417C 38.9546 30.1401 30.2348 38.8341 19.4777 38.8341C 8.72063 38.8341 0 30.1401 0 19.417C 0 8.69375 8.72063 0 19.4777 0C 30.2348 0 38.9546 8.69375 38.9546 19.417Z" transform="translate(0.206543 0.220391)" fill="#6BA744"/>
</g>
<g id="Fill 2">
<path fill-rule="evenodd" clip-rule="evenodd" d="M 2.43335 4.68987L 6.69768 4.68987L 6.69768 2.43295L 2.43335 2.43295L 2.43335 4.68987ZM 7.10143 0L 0 0L 0 11.2852L 2.43328 11.2852L 2.43328 7.12394L 5.08624 7.12394L 7.66756 7.03635C 8.51075 6.78945 9.14153 6.01669 9.14153 5.09579L 9.14153 2.03318C 9.14153 0.908627 8.22418 0 7.10143 0Z" transform="translate(84.2954 13.6559)" fill="#575754"/>
</g>
<g id="Fill 3">
<path fill-rule="evenodd" clip-rule="evenodd" d="M 7.09276 0L 2.03002 0C 0.907828 0 0 0.908627 0 2.03318L 0 4.80453C 0 5.92211 0.907828 6.83046 2.03002 6.83046L 6.68921 6.83046L 6.68921 8.81538L 0 8.81538L 0 9.21264C 0 10.3352 0.907828 11.2444 2.03002 11.2829L 7.09276 11.2829C 8.21355 11.2444 9.13341 10.3352 9.13341 9.21264L 9.13341 6.43376C 9.13341 5.31422 8.21355 4.40253 7.09276 4.40253L 2.43412 4.40253L 2.43412 2.43295L 9.13341 2.43295L 9.13341 2.03318C 9.13341 0.908627 8.21355 0 7.09276 0Z" transform="translate(48.0068 13.6559)" fill="#575754"/>
</g>
<g id="Fill 4">
<path fill-rule="evenodd" clip-rule="evenodd" d="M 2.433 2.03318C 2.433 0.908627 1.51342 0 0.390668 0L 0 0L 0 11.2852L 2.43804 11.2852L 2.433 2.43295L 2.433 2.03318Z" transform="translate(76.6272 13.6559)" fill="#575754"/>
</g>
<g id="Fill 5">
<path fill-rule="evenodd" clip-rule="evenodd" d="M 7.12494 0L 0 0L 0 2.43295L 3.11583 2.43295L 3.11583 11.2852L 5.55639 11.2852L 5.55639 2.43295L 9.16531 2.43295L 9.16531 2.03318C 9.16531 0.908627 8.25161 0 7.12494 0Z" transform="translate(97.2759 13.6559)" fill="#575754"/>
</g>
<g id="Fill 6">
<path fill-rule="evenodd" clip-rule="evenodd" d="M 9.13677 2.03318C 9.13677 0.908627 8.22586 0 7.10311 0L 6.70601 0L 6.70601 4.69127L 6.69789 4.68987L 2.43804 4.68987L 2.43804 0L 0 0L 0 11.2852L 2.43804 11.2852L 2.43804 7.12394L 6.70601 7.12394L 6.70601 11.2852L 9.14544 11.2852L 9.13677 2.43295L 9.13677 2.03318Z" transform="translate(62.2112 13.6559)" fill="#575754"/>
</g>
<g id="Fill 7">
<path fill-rule="evenodd" clip-rule="evenodd" d="M 0 0.547631C 3.06574 1.4769 6.26776 2.13975 9.57305 2.50158L 21.4221 2.50158C 24.7232 2.13975 27.9213 1.47802 30.9834 0.550421L 30.9834 0L 0 0L 0 0.547631Z" transform="translate(4.19214 16.8371)" fill="#FFFFFE"/>
</g>
<g id="Fill 8">
<path fill-rule="evenodd" clip-rule="evenodd" d="M 5.3465 0C 3.13458 0 1.18152 0.994272 0 2.51051L 10.6922 2.51051C 9.51148 0.994272 7.55898 0 5.3465 0Z" transform="translate(14.3376 10.6703)" fill="#FFFFFE"/>
</g>
<g id="Fill 9">
<path fill-rule="evenodd" clip-rule="evenodd" d="M 1.13255 0.740741L 6.60834 0.740741L 7.83519 0L 0 0L 1.13255 0.740741Z" transform="translate(15.7664 19.9315)" fill="#FFFFFE"/>
</g>
<g id="Fill 10">
<path fill-rule="evenodd" clip-rule="evenodd" d="M 0.821075 8.6692L 1.63907 0L 0 0L 0.821075 8.6692Z" transform="translate(18.8645 22.5486)" fill="#FFFFFE"/>
</g>
<g id="Fill 11">
<path fill-rule="evenodd" clip-rule="evenodd" d="M 0 8.09422L 4.68074 0.742635L 3.22021 0L 0 8.09422Z" transform="translate(10.0752 21.0359)" fill="#FFFFFE"/>
</g>
<g id="Fill 12">
<path fill-rule="evenodd" clip-rule="evenodd" d="M 0 0.742635L 4.68046 8.09422L 1.46053 0L 0 0.742635Z" transform="translate(24.6123 21.0359)" fill="#FFFFFE"/>
</g>
<g id="Fill 13">
<path fill-rule="evenodd" clip-rule="evenodd" d="M 25.08 1.74974C 24.8296 1.74974 24.623 1.54888 24.623 1.29919C 24.623 1.04672 24.8296 0.845578 25.08 0.845578C 25.3313 0.845578 25.5348 1.04672 25.5348 1.29919C 25.5348 1.54888 25.3313 1.74974 25.08 1.74974ZM 22.6833 1.74974C 22.4332 1.74974 22.2261 1.54888 22.2261 1.29919C 22.2261 1.04672 22.4332 0.845578 22.6833 0.845578C 22.9352 0.845578 23.1384 1.04672 23.1384 1.29919C 23.1384 1.54888 22.9352 1.74974 22.6833 1.74974ZM 20.2855 1.74974C 20.0359 1.74974 19.8291 1.54888 19.8291 1.29919C 19.8291 1.04672 20.0359 0.845578 20.2855 0.845578C 20.5371 0.845578 20.7417 1.04672 20.7417 1.29919C 20.7417 1.54888 20.5371 1.74974 20.2855 1.74974ZM 17.8902 1.74974C 17.6403 1.74974 17.4326 1.54888 17.4326 1.29919C 17.4326 1.04672 17.6403 0.845578 17.8902 0.845578C 18.1423 0.845578 18.3449 1.04672 18.3449 1.29919C 18.3449 1.54888 18.1423 1.74974 17.8902 1.74974ZM 15.492 1.74974C 15.2424 1.74974 15.0359 1.54888 15.0359 1.29919C 15.0359 1.04672 15.2424 0.845578 15.492 0.845578C 15.745 0.845578 15.9479 1.04672 15.9479 1.29919C 15.9479 1.54888 15.745 1.74974 15.492 1.74974ZM 13.0944 1.74974C 12.8431 1.74974 12.6394 1.54888 12.6394 1.29919C 12.6394 1.04672 12.8431 0.845578 13.0944 0.845578C 13.3446 0.845578 13.5512 1.04672 13.5512 1.29919C 13.5512 1.54888 13.3446 1.74974 13.0944 1.74974ZM 10.6969 1.74974C 10.4462 1.74974 10.2422 1.54888 10.2422 1.29919C 10.2422 1.04672 10.4462 0.845578 10.6969 0.845578C 10.9471 0.845578 11.1545 1.04672 11.1545 1.29919C 11.1545 1.54888 10.9471 1.74974 10.6969 1.74974ZM 8.30133 1.74974C 8.04947 1.74974 7.84546 1.54888 7.84546 1.29919C 7.84546 1.04672 8.04947 0.845578 8.30133 0.845578C 8.5504 0.845578 8.75776 1.04672 8.75776 1.29919C 8.75776 1.54888 8.5504 1.74974 8.30133 1.74974ZM 5.90404 1.74974C 5.65246 1.74974 5.44873 1.54888 5.44873 1.29919C 5.44873 1.04672 5.65246 0.845578 5.90404 0.845578C 6.15423 0.845578 6.36104 1.04672 6.36104 1.29919C 6.36104 1.54888 6.15423 1.74974 5.90404 1.74974ZM 27.8956 1.12121C 27.9188 1.17561 27.9319 1.23587 27.9319 1.29919C 27.9319 1.54888 27.7279 1.74974 27.4766 1.74974C 27.227 1.74974 27.0196 1.54888 27.0196 1.29919C 27.0196 1.16054 27.0834 1.03891 27.1808 0.956331C 25.3019 0.537309 23.3808 0.214533 21.4221 0L 9.57305 0C 7.61131 0.214812 5.68708 0.538146 3.8051 0.957726C 3.90165 1.04058 3.96433 1.16166 3.96433 1.29919C 3.96433 1.54888 3.75724 1.74974 3.5079 1.74974C 3.25548 1.74974 3.05175 1.54888 3.05175 1.29919C 3.05175 1.2367 3.06434 1.17756 3.08701 1.12372C 2.04429 1.37145 1.01417 1.6468 0 1.95395L 0 2.31467L 30.9834 2.31467L 30.9834 1.95144C 29.9692 1.64401 28.9386 1.36894 27.8956 1.12121Z" transform="translate(4.19214 13.8891)" fill="#FFFFFE"/>
</g>
</g>
</g>
</g>
</svg>

