<svg width="16" height="22" viewBox="0 0 16 22" version="1.1" xmlns="http://www.w3.org/2000/svg" xmlns:xlink="http://www.w3.org/1999/xlink">
<g id="Canvas" fill="none">
<g id="location-01">
<g id="Oval">
<path d="M 2 4C 3.10457 4 4 3.10457 4 2C 4 0.89543 3.10457 0 2 0C 0.89543 0 0 0.89543 0 2C 0 3.10457 0.89543 4 2 4Z" transform="matrix(0.707107 -0.707107 0.707107 0.707107 5.17157 7)" fill="#9F9F9F"/>
</g>
<g id="Shape">
<path d="M 0 6.95238C 0 3.14286 3.12162 0 6.90541 0C 8.7973 0 10.5946 0.666667 11.9189 2C 13.2432 3.33333 14 5.14286 14 7.04762C 14 8.19048 13.7162 9.2381 13.2432 10.1905L 7.56757 19.7143C 7.37838 20 7.09459 20 7 20C 6.90541 20 6.62162 20 6.43243 19.7143L 0.756757 10.1905C 0.189189 9.14286 0 8.09524 0 6.95238Z" stroke-width="1.3" transform="translate(1 1)" stroke="#9F9F9F"/>
</g>
</g>
</g>
</svg>

